<?xml version="1.0"?>
<svg width="195" height="146.165" xmlns="http://www.w3.org/2000/svg" xmlns:svg="http://www.w3.org/2000/svg" data-name="Group 13">
 <defs>
  <clipPath id="l9o0dab8ha">
   <path d="m0,0l195,0l0,146.16l-195,0l0,-146.16z" data-name="Rectangle 1" fill="none" id="svg_1"/>
  </clipPath>
 </defs>
 <g class="layer">
  <title>Layer 1</title>
  <g clip-path="url(#l9o0dab8ha)" data-name="Group 1" id="svg_2" transform="matrix(1 0 0 1 0 0)">
   <path d="m48.57,169.09a29.15,29.15 0 0 0 -3.31,-0.8a12.12,12.12 0 0 1 -7.65,-5.84a9.13,9.13 0 0 1 -1.02,-3.29a2,2 0 0 1 1.87,-2.43a21.3,21.3 0 0 1 3.26,-0.01a2.23,2.23 0 0 1 2.12,1.54c1.02,3.3 3.5,4.54 6.65,4.83a10.27,10.27 0 0 0 5.24,-0.75a3.77,3.77 0 0 0 2.51,-3.38a3.52,3.52 0 0 0 -2.12,-3.31a19.44,19.44 0 0 0 -4.75,-1.65a57.77,57.77 0 0 1 -7.4,-2.16c-2.98,-1.19 -5.35,-3.02 -6.18,-6.31a9.56,9.56 0 0 1 3.7,-10.17a15.62,15.62 0 0 1 10.42,-2.69a15.77,15.77 0 0 1 8,2.3a9.51,9.51 0 0 1 4.26,5.86c0.46,1.96 -0.41,3.06 -2.43,3.07c-0.3,0 -0.6,-0.02 -0.89,0c-2.08,0.22 -3.68,-0.29 -4.44,-2.52a3.71,3.71 0 0 0 -2.45,-2.16a10.43,10.43 0 0 0 -5.96,-0.28a4.14,4.14 0 0 0 -2.17,1.32a3.08,3.08 0 0 0 0.97,5.03c2.6,1.2 5.42,1.65 8.16,2.38a22.08,22.08 0 0 1 5.6,1.89c3.08,1.78 5.05,4.27 5.11,8.01a9.97,9.97 0 0 1 -4.99,9.28a15.85,15.85 0 0 1 -6.16,2.03c-0.21,0.03 -0.48,-0.1 -0.6,0.21l-5.35,0z" data-name="Path 1" fill="#0060a9" id="svg_3" transform="translate(-6.32 -22.924)"/>
   <path d="m0,115.09c5.15,0.01 10.3,0.04 15.45,0c0.88,-0.01 1.17,0.22 1.07,1.09a9.94,9.94 0 0 0 0,1.98c0.06,0.68 -0.17,0.88 -0.87,0.88c-4.16,-0.03 -8.32,-0.02 -12.48,-0.02c-1.06,0 -2.11,0.02 -3.17,0.03l0,-3.97" data-name="Path 2" fill="#043666" id="svg_4" transform="translate(0 -19.891)"/>
   <path d="m119.06,0c-0.22,0.34 -0.07,0.7 -0.07,1.05c-0.01,4.79 -0.03,9.58 0.01,14.37c0,0.77 -0.1,1.15 -1,1.06c-0.92,-0.1 -2.15,0.29 -2.68,-0.17c-0.62,-0.54 -0.19,-1.8 -0.19,-2.74c-0.03,-4.53 -0.03,-9.05 -0.04,-13.57l3.97,0z" data-name="Path 3" fill="#043666" id="svg_5" transform="translate(-19.874)"/>
   <path d="m235.71,172.97a0.2,0.2 0 0 0 -0.18,-0.06l0,-2.84l0.18,-0.08l0,2.98z" data-name="Path 4" fill="#0060a9" id="svg_6" transform="translate(-40.708 -29.382)"/>
   <path d="m91.05,35.76c7.07,0 14.15,0.01 21.22,-0.02c0.83,0 1.07,0.09 0.8,1.01c-1.25,4.3 -2.44,8.63 -3.62,12.95a1.08,1.08 0 0 1 -1.26,0.96c-9.12,-0.03 -18.25,-0.02 -27.37,-0.02c-2.58,0 -3.83,0.93 -4.54,3.38q-1,3.42 -1.98,6.84c-0.55,1.95 0.24,2.99 2.28,2.99l14.28,0c2.33,0 3.11,1.05 2.46,3.28q-1.24,4.27 -2.48,8.54a3.93,3.93 0 0 1 -4.07,3.09c-4.86,0.01 -9.72,0 -14.58,0a3.82,3.82 0 0 0 -3.87,2.9c-0.74,2.5 -1.45,5 -2.16,7.51c-0.5,1.76 0.3,2.85 2.15,2.87c2.97,0.02 5.95,0 8.92,0l17.16,0c2.07,0 2.85,1.06 2.27,3.08l-2.48,8.65a3.98,3.98 0 0 1 -4.22,3.15l-40.56,0c-2.17,0 -2.98,-1.11 -2.37,-3.21q6.23,-21.61 12.46,-43.22q3.09,-10.74 6.18,-21.48a4.01,4.01 0 0 1 4.35,-3.25l21.03,0" data-name="Path 5" fill="#043666" id="svg_7" transform="translate(-8.095 -6.177)"/>
   <path d="m135.42,50.63c-3.67,0 -7.34,-0.01 -11.01,0.02c-0.74,0 -0.97,-0.1 -0.73,-0.92a843.74,843.74 0 0 0 3.64,-13.06c0.2,-0.72 0.53,-0.94 1.29,-0.93c5.95,0.03 11.9,0.02 17.85,0.02a21.5,21.5 0 0 1 3.08,42.77a50.57,50.57 0 0 1 -6.92,0.2c-2.75,0.01 -5.49,0 -8.23,0a3.86,3.86 0 0 0 -4.14,3.08q-3.16,10.93 -6.31,21.86a3.97,3.97 0 0 1 -4.26,3.22l-8.33,0c-2.09,0 -2.91,-1.06 -2.34,-3.05q4.81,-16.78 9.64,-33.56q0.48,-1.66 0.95,-3.33a3.93,3.93 0 0 1 4.08,-3.07l22.6,-0.03a6.61,6.61 0 1 0 0.04,-13.22c-3.63,-0.01 -7.27,0 -10.9,0" data-name="Path 6" fill="#0060a9" id="svg_8" transform="translate(-18.81 -6.177)"/>
   <path d="m0.76,151.09l0,-14.37c0,-2.31 0.76,-3.07 3.1,-3.07l20.14,0c2.06,0 2.88,0.82 2.88,2.87c0,0.47 0.03,0.93 -0.01,1.39a2.32,2.32 0 0 1 -2.46,2.2c-4.36,0.01 -8.73,0 -13.09,0c-1.99,0 -2.82,0.84 -2.83,2.83c0,0.69 0,1.39 0,2.08a2.22,2.22 0 0 0 2.45,2.46c3.77,0 7.54,0 11.31,0c2.7,0 4.08,2.28 2.86,4.73a2.39,2.39 0 0 1 -2.37,1.31c-3.73,-0.02 -7.47,-0.01 -11.2,-0.01c-2.29,0 -3.05,0.75 -3.05,3l0,2.88a2.28,2.28 0 0 0 2.56,2.56q6.59,0.01 13.19,0c2.21,0 3.04,0.84 3.03,3.06a9.01,9.01 0 0 1 -0.05,1.48a2.24,2.24 0 0 1 -2.27,1.96q-10.95,0.03 -21.91,0c-1.42,0 -2.28,-1.07 -2.28,-2.69q-0.02,-6.49 0,-12.98l0,-1.69" data-name="Path 7" fill="#0060a9" id="svg_9" transform="translate(-.13 -23.1)"/>
   <path d="m178.33,133.65l1.29,0a3.45,3.45 0 0 1 3.55,2.45q4.94,13.18 9.86,26.37c0.47,1.23 0.95,2.46 1.38,3.7c0.5,1.42 -0.1,2.27 -1.58,2.3q-1.59,0.03 -3.17,0a3.36,3.36 0 0 1 -3.17,-2.27c-0.36,-0.99 -0.68,-2 -1.02,-3a3.36,3.36 0 0 0 -3.41,-2.47q-3.92,0 -7.83,0a3.41,3.41 0 0 0 -3.4,2.38c-0.35,0.96 -0.67,1.93 -1.01,2.89a3.42,3.42 0 0 1 -3.43,2.47c-0.93,0 -1.85,0.01 -2.78,0c-1.47,-0.03 -2.08,-0.91 -1.55,-2.32c1.25,-3.36 2.53,-6.71 3.8,-10.07q3.67,-9.7 7.34,-19.4c0.93,-2.46 1.77,-3.03 4.44,-3.03l0.69,0m0,8.89l-0.21,-0.03c-1.25,3.54 -2.53,7.06 -3.72,10.61c-0.33,1 0.37,1.8 1.49,1.84c1.49,0.06 2.98,0.05 4.46,0.01a1.5,1.5 0 0 0 1.52,-2.16c-1.15,-3.43 -2.35,-6.85 -3.54,-10.27" data-name="Path 8" fill="#043666" id="svg_10" transform="translate(-27.978 -23.099)"/>
   <path d="m130.5,151.02l0,-14.37c0,-2.21 0.78,-3.02 2.97,-3c4.72,0.05 9.44,-0.07 14.16,0.1c6.76,0.25 11.76,5.14 10.48,13.23c-0.93,5.83 -4.86,8.8 -11.34,8.97c-1.92,0.05 -3.83,0.02 -5.75,0.03s-2.77,0.88 -2.78,2.79c0,2.35 0.01,4.69 0,7.04a2.35,2.35 0 0 1 -2.67,2.67l-2.38,0a2.39,2.39 0 0 1 -2.69,-2.69c-0.02,-2.75 0,-5.49 0,-8.23l0,-6.54m7.75,-6.25c0,0.95 -0.02,1.91 0,2.87a2.23,2.23 0 0 0 2.18,2.36a33.02,33.02 0 0 0 6.32,-0.2a4.54,4.54 0 0 0 4.11,-4.87c0.04,-2.82 -1.29,-4.54 -4.01,-5.03a28.97,28.97 0 0 0 -6.61,-0.2a2.12,2.12 0 0 0 -1.99,2.2c-0.04,0.95 -0.01,1.91 -0.01,2.87" data-name="Path 9" fill="#043666" id="svg_11" transform="translate(-22.554 -23.1)"/>
   <path d="m88.21,133.68l11.6,0c1.79,0 2.55,0.83 2.63,2.59c0.15,3.09 -0.58,4.03 -3.78,3.85c-1.29,-0.07 -2.58,-0.01 -3.87,-0.01c-1.92,0 -2.79,0.85 -2.79,2.78q0,11.25 0,22.5c0,2.37 -0.7,3.08 -3.05,3.08l-1.98,0c-1.77,-0.01 -2.62,-0.84 -2.62,-2.6l0,-22.7c0,-2.26 -0.79,-3.06 -3.02,-3.06c-1.65,0 -3.3,0.01 -4.95,0a2.32,2.32 0 0 1 -2.51,-2.45c-0.11,-2.8 0.12,-4.15 3.84,-4.01c3.5,0.14 7,0.03 10.51,0.03" data-name="Path 10" fill="#0060a9" id="svg_12" transform="translate(-12.763 -23.098)"/>
   <path d="m230.39,163.78q0,1.42 0,2.84a2.19,2.19 0 0 1 -2.24,1.84q-10.01,0.02 -20.02,0c-1.45,0 -2.33,-1.02 -2.33,-2.62q-0.01,-8.77 0,-17.54l0,-11.89c0,-1.92 0.85,-2.76 2.79,-2.76c0.82,0 1.65,-0.02 2.48,0a2.25,2.25 0 0 1 2.44,2.48q0.01,11.5 0,23c0,2.03 0.78,2.82 2.8,2.82l11.5,0a2.32,2.32 0 0 1 2.57,1.83" data-name="Path 11" fill="#043666" id="svg_13" transform="translate(-35.57 -23.098)"/>
   <path d="m113.2,151.02l0,-14.68c0,-1.87 0.83,-2.69 2.73,-2.7c0.8,0 1.59,0 2.38,0a2.34,2.34 0 0 1 2.59,2.58c0.02,3.17 0.01,6.34 0.01,9.52l0,19.83c0,2.04 -0.85,2.9 -2.88,2.9c-0.79,0 -1.58,0.01 -2.38,0a2.27,2.27 0 0 1 -2.45,-2.48q-0.01,-7.49 0,-14.98" data-name="Path 12" fill="#0060a9" id="svg_14" transform="translate(-19.564 -23.099)"/>
   <path d="m30.71,65.33l-0.75,1.27c-1.13,1.92 -1.13,1.93 -3.08,0.81c-3.86,-2.21 -7.7,-4.44 -11.57,-6.62c-0.58,-0.33 -0.75,-0.58 -0.34,-1.17c0.56,-0.81 0.87,-2.13 1.59,-2.39c0.74,-0.28 1.69,0.76 2.54,1.25c3.66,2.08 7.3,4.2 10.95,6.3c0.24,0.14 0.57,0.2 0.66,0.55" data-name="Path 13" fill="#043666" id="svg_15" transform="translate(-2.548 -9.883)"/>
   <path d="m223.3,119c-2.48,0 -4.95,-0.02 -7.42,0.01c-0.59,0.01 -0.84,-0.11 -0.79,-0.75c0.07,-1.02 -0.33,-2.35 0.18,-2.97c0.53,-0.64 1.91,-0.19 2.92,-0.2c4.06,-0.02 8.12,0.02 12.18,-0.03c0.8,0 1.14,0.16 1.05,1.01a12.48,12.48 0 0 0 0,2.18c0.05,0.63 -0.2,0.77 -0.79,0.76c-2.44,-0.03 -4.88,-0.01 -7.33,-0.01" data-name="Path 14" fill="#043666" id="svg_16" transform="translate(-37.161 -19.868)"/>
   <path d="m59.79,14.85c0.28,0.01 0.32,0.28 0.43,0.46l7.67,13.03c0.25,0.43 0.28,0.67 -0.22,0.92c-0.76,0.38 -1.5,0.82 -2.23,1.27c-0.42,0.26 -0.65,0.25 -0.92,-0.22c-2.55,-4.39 -5.12,-8.76 -7.69,-13.14c-0.12,-0.21 -0.35,-0.44 0.02,-0.65c0.91,-0.53 1.82,-1.06 2.73,-1.59a1.54,1.54 0 0 1 0.2,-0.08" data-name="Path 15" fill="#043666" id="svg_17" transform="translate(-9.791 -2.567)"/>
   <path d="m217.13,60.03c0,0.31 -0.26,0.37 -0.44,0.48l-13.18,7.6c-0.42,0.24 -0.61,0.18 -0.83,-0.23c-0.5,-0.93 -1.55,-1.91 -1.43,-2.72c0.13,-0.84 1.62,-1.15 2.51,-1.67c3.59,-2.09 7.2,-4.13 10.78,-6.22c0.56,-0.33 0.88,-0.39 1.19,0.29s0.75,1.31 1.13,1.97c0.1,0.17 0.19,0.34 0.27,0.51" data-name="Path 16" fill="#043666" id="svg_18" transform="translate(-34.782 -9.856)"/>
   <path d="m167.48,30.8c-1.04,-0.59 -2.06,-1.14 -3.04,-1.74c-0.28,-0.17 0.01,-0.42 0.11,-0.59c2.56,-4.38 5.13,-8.76 7.68,-13.14c0.27,-0.47 0.49,-0.5 0.92,-0.22a21.47,21.47 0 0 0 2.14,1.23c0.58,0.29 0.53,0.56 0.24,1.06c-2.51,4.25 -4.99,8.53 -7.49,12.8c-0.14,0.23 -0.23,0.54 -0.56,0.61" data-name="Path 17" fill="#043666" id="svg_19" transform="translate(-28.401 -2.58)"/>
   <path d="m10.38,81.47c0.22,0.08 0.37,0.14 0.53,0.19c2.47,0.8 4.94,1.62 7.42,2.38c0.59,0.18 0.59,0.41 0.42,0.91c-0.44,1.39 -0.41,1.39 -1.8,0.94c-2.25,-0.73 -4.5,-1.46 -6.76,-2.2c-0.28,-0.09 -0.74,-0.11 -0.54,-0.61c0.22,-0.54 0.17,-1.23 0.73,-1.61" data-name="Path 18" fill="#043666" id="svg_20" transform="translate(-1.659 -14.082)"/>
   <path d="m22.83,74.49c-0.2,0.46 -0.4,0.98 -0.68,1.47c-0.14,0.25 -0.4,0.09 -0.61,0q-3.69,-1.64 -7.39,-3.27c-0.36,-0.16 -0.55,-0.3 -0.3,-0.71a7.2,7.2 0 0 0 0.46,-1.09c0.14,-0.36 0.32,-0.38 0.67,-0.22c2.48,1.11 4.98,2.2 7.47,3.31c0.19,0.08 0.49,0.11 0.38,0.52" data-name="Path 19" fill="#043666" id="svg_21" transform="translate(-2.374 -12.197)"/>
   <path d="m86.04,18.05c0.07,0.31 -0.14,0.39 -0.38,0.46a10.08,10.08 0 0 0 -1.03,0.34c-0.45,0.19 -0.63,0.02 -0.77,-0.42q-1.22,-3.8 -2.49,-7.59c-0.16,-0.46 -0.02,-0.66 0.41,-0.78a6.27,6.27 0 0 0 1.03,-0.31c0.33,-0.15 0.48,-0.08 0.59,0.24q1.3,3.98 2.61,7.96l0.03,0.1" data-name="Path 20" fill="#043666" id="svg_22" transform="translate(-14.052 -1.672)"/>
   <path d="m217.04,95.12c-0.1,-0.38 0.16,-0.46 0.49,-0.53c2.64,-0.55 5.28,-1.09 7.91,-1.67c0.44,-0.1 0.62,-0.02 0.68,0.4a4.96,4.96 0 0 0 0.17,0.87c0.19,0.59 -0.03,0.8 -0.6,0.92a537.78,537.78 0 0 0 -7.63,1.61c-0.46,0.1 -0.76,0.05 -0.81,-0.5c-0.04,-0.36 -0.14,-0.71 -0.21,-1.1" data-name="Path 21" fill="#043666" id="svg_23" transform="translate(-37.509 -16.054)"/>
   <path d="m163.6,14.78c-0.08,0.2 -0.15,0.39 -0.23,0.57c-1.05,2.34 -2.13,4.67 -3.13,7.03c-0.28,0.67 -0.56,0.61 -1.09,0.35c-1.21,-0.6 -1.23,-0.57 -0.67,-1.81c0.92,-2.07 1.89,-4.13 2.76,-6.23c0.33,-0.81 0.7,-1.01 1.41,-0.52c0.31,0.22 0.79,0.18 0.95,0.6" data-name="Path 22" fill="#043666" id="svg_24" transform="translate(-27.33 -2.404)"/>
   <path d="m211.14,76.1c-0.52,-0.39 -0.57,-1.05 -0.86,-1.57c-0.25,-0.44 0.17,-0.5 0.4,-0.59c2.43,-1.09 4.88,-2.15 7.3,-3.25c0.48,-0.22 0.72,-0.18 0.86,0.34a2.13,2.13 0 0 0 0.26,0.63c0.39,0.59 0.23,0.86 -0.41,1.13c-2.3,0.97 -4.57,2.01 -6.85,3.03c-0.21,0.09 -0.43,0.17 -0.7,0.28" data-name="Path 23" fill="#043666" id="svg_25" transform="translate(-36.331 -12.196)"/>
   <path d="m51.5,25.47c0.27,0 0.34,0.21 0.45,0.36c1.6,2.18 3.18,4.37 4.79,6.53c0.3,0.4 0.25,0.6 -0.16,0.83a4.95,4.95 0 0 0 -0.88,0.64c-0.3,0.26 -0.47,0.21 -0.7,-0.1q-2.4,-3.33 -4.83,-6.64c-0.21,-0.28 -0.28,-0.48 0.07,-0.7c0.44,-0.29 0.85,-0.62 1.26,-0.92" data-name="Path 24" fill="#043666" id="svg_26" transform="translate(-8.641 -4.402)"/>
   <path d="m42.28,32.86c0.27,-0.01 0.38,0.18 0.5,0.33c1.81,2 3.62,4 5.44,6c0.29,0.31 0.31,0.52 -0.05,0.77a2.55,2.55 0 0 0 -0.59,0.53c-0.44,0.58 -0.76,0.47 -1.21,-0.04a219.13,219.13 0 0 0 -4.96,-5.5c-0.54,-0.57 -0.69,-0.96 0.08,-1.41a5.37,5.37 0 0 0 0.79,-0.69" data-name="Path 25" fill="#043666" id="svg_27" transform="translate(-7.079 -5.679)"/>
   <path d="m193.89,48.84a17.36,17.36 0 0 1 -1.24,-1.4c-0.3,-0.41 0.21,-0.56 0.41,-0.74c1.86,-1.69 3.74,-3.35 5.6,-5.05c0.45,-0.42 0.84,-0.66 1.2,0.03c0.26,0.48 1.33,0.74 0.33,1.59c-1.97,1.66 -3.85,3.42 -5.77,5.14c-0.15,0.13 -0.3,0.25 -0.53,0.43" data-name="Path 26" fill="#043666" id="svg_28" transform="translate(-33.281 -7.129)"/>
   <path d="m207.97,51.81c0,0.28 -0.24,0.37 -0.41,0.5c-2.16,1.56 -4.34,3.11 -6.48,4.69c-0.4,0.29 -0.56,0.22 -0.85,-0.14c-0.98,-1.25 -1,-1.24 0.26,-2.14c1.78,-1.29 3.6,-2.54 5.34,-3.89c0.74,-0.58 1.2,-0.63 1.63,0.25a6.06,6.06 0 0 0 0.5,0.73" data-name="Path 27" fill="#043666" id="svg_29" transform="translate(-34.485 -8.712)"/>
   <path d="m16.02,95.17l-0.03,0.16c-0.26,1.53 -0.26,1.53 -1.76,1.21c-2.29,-0.48 -4.56,-1.02 -6.85,-1.45c-0.81,-0.15 -0.78,-0.55 -0.56,-1.08c0.2,-0.45 -0.2,-1.36 0.99,-1.07c2.52,0.62 5.08,1.11 7.62,1.63c0.4,0.08 0.73,0.14 0.59,0.6" data-name="Path 28" fill="#043666" id="svg_30" transform="translate(-1.156 -16.054)"/>
   <path d="m71.97,13.87c0.35,0.02 0.39,0.28 0.48,0.47c1.09,2.43 2.16,4.87 3.27,7.29c0.2,0.45 0.12,0.66 -0.33,0.81a4.98,4.98 0 0 0 -0.9,0.41c-0.36,0.21 -0.56,0.17 -0.74,-0.24q-1.65,-3.75 -3.34,-7.48c-0.17,-0.36 -0.13,-0.53 0.24,-0.67c0.46,-0.18 0.9,-0.4 1.32,-0.59" data-name="Path 29" fill="#043666" id="svg_31" transform="translate(-12.154 -2.397)"/>
   <path d="m141.45,7.47c-0.6,2.81 -1.17,5.46 -1.72,8.1c-0.08,0.41 -0.27,0.5 -0.68,0.45c-1.61,-0.21 -1.61,-0.2 -1.27,-1.77c0.5,-2.32 1,-4.64 1.47,-6.97c0.1,-0.53 0.36,-0.69 0.81,-0.47c0.48,0.22 1.33,-0.13 1.39,0.66" data-name="Path 30" fill="#043666" id="svg_32" transform="translate(-23.783 -1.16)"/>
   <path d="m33.93,41.04c0.23,0.19 0.44,0.35 0.63,0.52c1.92,1.72 3.83,3.45 5.77,5.14c0.44,0.39 0.43,0.58 0.05,1c-1,1.1 -0.97,1.12 -2.03,0.17c-1.7,-1.52 -3.36,-3.07 -5.1,-4.54c-0.64,-0.55 -0.7,-0.91 -0.07,-1.44a7.66,7.66 0 0 0 0.75,-0.85" data-name="Path 31" fill="#043666" id="svg_33" transform="translate(-5.658 -7.094)"/>
   <path d="m32.65,57.31c-0.24,-0.17 -0.44,-0.3 -0.62,-0.43c-2.06,-1.49 -4.1,-2.99 -6.18,-4.44c-0.56,-0.39 -0.62,-0.66 -0.19,-1.2c0.83,-1.06 0.8,-1.08 1.88,-0.3c1.89,1.37 3.76,2.77 5.69,4.1c0.62,0.42 0.71,0.73 0.2,1.26c-0.29,0.3 -0.52,0.66 -0.78,1" data-name="Path 32" fill="#043666" id="svg_34" transform="translate(-4.386 -8.711)"/>
   <path d="m192.65,34.2c-0.19,0.23 -0.33,0.42 -0.49,0.59c-1.72,1.9 -3.46,3.79 -5.15,5.71c-0.4,0.46 -0.67,0.54 -1.07,0.06a2.11,2.11 0 0 0 -0.51,-0.46c-0.53,-0.32 -0.5,-0.6 -0.08,-1.05a215.77,215.77 0 0 0 5.08,-5.65c0.49,-0.57 0.82,-0.63 1.3,-0.06a11.17,11.17 0 0 0 0.92,0.86" data-name="Path 33" fill="#043666" id="svg_35" transform="translate(-31.981 -5.694)"/>
   <path d="m223.42,83.23c0.1,0.34 -0.2,0.37 -0.39,0.43c-2.59,0.86 -5.19,1.7 -7.79,2.56c-0.35,0.11 -0.56,0.07 -0.66,-0.32a8.15,8.15 0 0 0 -0.33,-1.03c-0.18,-0.45 -0.05,-0.64 0.4,-0.79q3.82,-1.2 7.62,-2.46c0.45,-0.15 0.67,-0.08 0.79,0.38c0.1,0.41 0.23,0.82 0.35,1.23" data-name="Path 34" fill="#043666" id="svg_36" transform="translate(-37.018 -14.095)"/>
   <path d="m183.66,26.69c-0.13,0.19 -0.22,0.33 -0.31,0.46c-1.57,2.17 -3.16,4.32 -4.7,6.49c-0.3,0.42 -0.53,0.49 -0.91,0.14a5.13,5.13 0 0 0 -0.79,-0.6c-0.35,-0.21 -0.43,-0.39 -0.15,-0.76q2.42,-3.26 4.78,-6.55c0.26,-0.37 0.46,-0.49 0.84,-0.14s0.82,0.64 1.24,0.96" data-name="Path 35" fill="#043666" id="svg_37" transform="translate(-30.528 -4.412)"/>
   <path d="m149.62,18.94c-0.48,-0.15 -0.99,-0.28 -1.48,-0.47c-0.3,-0.11 -0.19,-0.38 -0.12,-0.6c0.84,-2.6 1.7,-5.19 2.52,-7.79c0.13,-0.38 0.3,-0.45 0.65,-0.31a8.52,8.52 0 0 0 1.12,0.37c0.39,0.09 0.44,0.26 0.31,0.63c-0.85,2.59 -1.68,5.19 -2.52,7.78c-0.07,0.2 -0.13,0.48 -0.49,0.39" data-name="Path 36" fill="#043666" id="svg_38" transform="translate(-25.57 -1.678)"/>
   <path d="m96.59,15.21c0.02,0.16 0.08,0.39 -0.1,0.43a5.52,5.52 0 0 1 -1.72,0.35c-0.46,-0.02 -0.34,-0.63 -0.41,-0.99c-0.54,-2.44 -1.04,-4.9 -1.59,-7.33c-0.13,-0.52 0.11,-0.75 0.49,-0.68c0.53,0.09 1.31,-0.88 1.56,0.11c0.68,2.68 1.2,5.4 1.78,8.1" data-name="Path 37" fill="#043666" id="svg_39" transform="translate(-16.027 -1.15)"/>
   <path d="m228.04,105.8c0.21,0.64 -0.16,0.83 -0.81,0.89c-2.49,0.23 -4.99,0.47 -7.47,0.78c-1.37,0.17 -0.76,-0.92 -0.99,-1.44c-0.29,-0.66 0.25,-0.69 0.75,-0.74c2.39,-0.23 4.78,-0.52 7.17,-0.75c1.27,-0.13 1.27,-0.1 1.35,1.26" data-name="Path 38" fill="#043666" id="svg_40" transform="translate(-37.799 -18.06)"/>
   <path d="m105.85,5.02c0.53,-0.17 0.69,0.1 0.74,0.69c0.26,2.63 0.55,5.25 0.85,7.87c0.04,0.38 -0.04,0.51 -0.44,0.58c-1.68,0.29 -1.7,0.27 -1.86,-1.43c-0.19,-2.1 -0.42,-4.2 -0.64,-6.3c-0.14,-1.35 -0.14,-1.35 1.35,-1.41" data-name="Path 39" fill="#043666" id="svg_41" transform="translate(-18.053 -.859)"/>
   <path d="m5.92,104.49c2.75,0.28 5.3,0.56 7.86,0.81c0.42,0.04 0.59,0.18 0.5,0.61a2.66,2.66 0 0 0 -0.09,0.78c0.07,0.77 -0.33,0.84 -0.96,0.77c-2.42,-0.28 -4.84,-0.59 -7.27,-0.76c-0.96,-0.07 -1.02,-0.46 -0.94,-1.24c0.08,-0.71 0.1,-1.33 0.9,-0.97" data-name="Path 40" fill="#043666" id="svg_42" transform="translate(-.863 -18.041)"/>
   <path d="m128.81,5.07c0.98,-0.18 1.25,0.2 1.1,1.24c-0.35,2.41 -0.56,4.84 -0.79,7.27c-0.05,0.59 -0.2,0.86 -0.83,0.67a2.54,2.54 0 0 0 -0.78,-0.09c-0.47,0.01 -0.63,-0.14 -0.58,-0.65c0.3,-2.55 0.57,-5.11 0.8,-7.66c0.07,-0.7 0.3,-1.05 1.07,-0.79" data-name="Path 41" fill="#043666" id="svg_43" transform="translate(-21.938 -.86)"/>
  </g>
  <text fill="#043666" font-family="Serif" font-size="24" font-weight="bold" id="svg_44" stroke="#000000" stroke-width="0" text-anchor="middle" x="184.63" xml:space="preserve" y="22.78">®</text>
 </g>
</svg>