<?xml version="1.0"?>
<svg width="87.32" height="65.452" xmlns="http://www.w3.org/2000/svg" xmlns:svg="http://www.w3.org/2000/svg" data-name="Group 87">
 <defs>
  <clipPath id="wymg34ksia">
   <path d="m0,0l87.32,0l0,65.45l-87.32,0l0,-65.45z" data-name="Rectangle 12" fill="none" id="svg_1"/>
  </clipPath>
 </defs>
 <g class="layer">
  <title>Layer 1</title>
  <g clip-path="url(#wymg34ksia)" data-name="Group 61" id="svg_2">
   <path d="m41.94,148.96a13.06,13.06 0 0 0 -1.48,-0.36a5.43,5.43 0 0 1 -3.43,-2.62a4.09,4.09 0 0 1 -0.46,-1.47a0.9,0.9 0 0 1 0.84,-1.09a9.54,9.54 0 0 1 1.46,0a1,1 0 0 1 0.95,0.69a3.04,3.04 0 0 0 2.98,2.16a4.6,4.6 0 0 0 2.35,-0.33a1.69,1.69 0 0 0 1.12,-1.52a1.57,1.57 0 0 0 -0.95,-1.48a8.71,8.71 0 0 0 -2.12,-0.74a25.87,25.87 0 0 1 -3.32,-0.97a4.13,4.13 0 0 1 -2.77,-2.82a4.28,4.28 0 0 1 1.66,-4.56a7,7 0 0 1 4.67,-1.2a7.06,7.06 0 0 1 3.58,1.03a4.26,4.26 0 0 1 1.9,2.62c0.21,0.88 -0.18,1.38 -1.08,1.38c-0.14,0 -0.27,-0.01 -0.4,0a1.63,1.63 0 0 1 -1.99,-1.13a1.66,1.66 0 0 0 -1.1,-0.97a4.67,4.67 0 0 0 -2.66,-0.13a1.86,1.86 0 0 0 -0.97,0.6a1.38,1.38 0 0 0 0.43,2.25a21.8,21.8 0 0 0 3.65,1.07a9.88,9.88 0 0 1 2.51,0.84a4.04,4.04 0 0 1 2.29,3.59a4.46,4.46 0 0 1 -2.23,4.16a7.1,7.1 0 0 1 -2.76,0.91c-0.1,0.01 -0.22,-0.05 -0.27,0.09l-2.4,0z" data-name="Path 48" fill="#1775d3" id="svg_3" transform="translate(-23.021 -83.506)"/>
   <path d="m0,115.09c2.31,0 4.61,0.02 6.92,0c0.4,0 0.52,0.1 0.48,0.49a4.45,4.45 0 0 0 0,0.88c0.02,0.31 -0.08,0.4 -0.39,0.4c-1.87,-0.01 -3.73,-0.01 -5.59,0c-0.47,0 -0.95,0 -1.42,0.01l0,-1.78" data-name="Path 49" fill="#fff" id="svg_4" transform="translate(0 -72.459)"/>
   <path d="m116.81,0c-0.1,0.15 -0.03,0.32 -0.03,0.47c-0.01,2.15 -0.01,4.29 0,6.44c0,0.34 -0.05,0.51 -0.45,0.47s-0.96,0.13 -1.2,-0.08c-0.28,-0.24 -0.08,-0.8 -0.08,-1.22c-0.02,-2.03 -0.02,-4.05 -0.02,-6.08l1.78,0z" data-name="Path 50" fill="#fff" id="svg_5" transform="translate(-72.397)"/>
   <path d="m235.61,171.33a0.09,0.09 0 0 0 -0.08,-0.03l0,-1.27l0.08,-0.04l0,1.34z" data-name="Path 51" fill="#0060a9" id="svg_6" transform="translate(-148.287 -107.028)"/>
   <path d="m66.63,35.75c3.17,0 6.34,0 9.5,-0.01c0.37,0 0.48,0.04 0.36,0.45a323.54,323.54 0 0 0 -1.62,5.8a0.48,0.48 0 0 1 -0.56,0.43c-4.09,-0.01 -8.17,-0.01 -12.26,-0.01a1.81,1.81 0 0 0 -2.03,1.51q-0.45,1.53 -0.89,3.07c-0.25,0.87 0.1,1.34 1.02,1.34l6.4,0c1.04,0 1.39,0.47 1.1,1.46q-0.56,1.92 -1.11,3.83a1.76,1.76 0 0 1 -1.82,1.38c-2.18,0.01 -4.35,0 -6.53,0a1.71,1.71 0 0 0 -1.74,1.3c-0.32,1.12 -0.64,2.24 -0.96,3.36c-0.22,0.79 0.14,1.28 0.96,1.29c1.33,0.01 2.66,0 4,0l7.68,0c0.93,0 1.28,0.47 1.02,1.37l-1.11,3.88a1.78,1.78 0 0 1 -1.89,1.41l-18.17,0c-0.96,0 -1.33,-0.5 -1.06,-1.44q2.79,-9.67 5.58,-19.35q1.39,-4.81 2.77,-9.62a1.8,1.8 0 0 1 1.95,-1.45l9.41,0" data-name="Path 52" fill="#fff" id="svg_7" transform="translate(-29.487 -22.501)"/>
   <path d="m120.74,42.41c-1.65,0 -3.29,-0.01 -4.93,0c-0.33,0 -0.44,-0.04 -0.33,-0.41a391.89,391.89 0 0 0 1.63,-5.84c0.09,-0.33 0.24,-0.43 0.58,-0.42c2.66,0.01 5.33,0 7.99,0.01a9.63,9.63 0 0 1 1.38,19.15a22.64,22.64 0 0 1 -3.1,0.09l-3.68,0a1.73,1.73 0 0 0 -1.86,1.38q-1.41,4.89 -2.82,9.79a1.78,1.78 0 0 1 -1.91,1.44l-3.73,0c-0.93,0 -1.3,-0.47 -1.04,-1.37q2.15,-7.51 4.31,-15.02l0.43,-1.49a1.76,1.76 0 0 1 1.82,-1.38l10.12,-0.01a2.96,2.96 0 1 0 0.03,-5.92c-1.63,-0.01 -3.26,0 -4.89,0" data-name="Path 53" fill="#2075d3" id="svg_8" transform="translate(-68.521 -22.499)"/>
   <path d="m0.76,141.46l0,-6.44c0,-1.03 0.34,-1.37 1.39,-1.37l9.01,0c0.93,0 1.29,0.36 1.29,1.29c0,0.2 0.02,0.41 0,0.62a1.04,1.04 0 0 1 -1.1,0.98l-5.86,0c-0.89,0 -1.26,0.38 -1.26,1.27l0,0.93a0.99,0.99 0 0 0 1.1,1.1l5.06,0a1.38,1.38 0 0 1 1.28,2.12a1.07,1.07 0 0 1 -1.06,0.59c-1.67,-0.01 -3.34,0 -5.02,0c-1.02,0 -1.36,0.33 -1.36,1.34l0,1.29a1.02,1.02 0 0 0 1.14,1.15l5.91,0c0.99,0 1.36,0.37 1.36,1.37a4.04,4.04 0 0 1 -0.02,0.66a1,1 0 0 1 -1.02,0.88q-4.91,0.01 -9.81,0c-0.64,0 -1.02,-0.48 -1.02,-1.2q-0.01,-2.91 0,-5.82l0,-0.75" data-name="Path 54" fill="#1775d3" id="svg_9" transform="translate(-.475 -84.145)"/>
   <path d="m169.25,133.65l0.57,0a1.55,1.55 0 0 1 1.59,1.1q2.21,5.9 4.42,11.8c0.2,0.56 0.42,1.1 0.61,1.66c0.23,0.64 -0.04,1.02 -0.7,1.03q-0.71,0.01 -1.42,0a1.5,1.5 0 0 1 -1.42,-1.02c-0.16,-0.44 -0.3,-0.89 -0.46,-1.34a1.5,1.5 0 0 0 -1.53,-1.1l-3.5,0a1.53,1.53 0 0 0 -1.52,1.07c-0.16,0.43 -0.3,0.86 -0.46,1.29a1.53,1.53 0 0 1 -1.53,1.1c-0.41,0 -0.83,0.01 -1.24,0c-0.66,-0.01 -0.94,-0.41 -0.7,-1.04c0.56,-1.5 1.13,-3 1.7,-4.51q1.64,-4.34 3.28,-8.68c0.42,-1.1 0.8,-1.36 1.99,-1.36l0.31,0m0,3.98l-0.1,-0.01c-0.55,1.58 -1.13,3.16 -1.66,4.75c-0.15,0.45 0.16,0.81 0.67,0.82c0.66,0.03 1.33,0.03 2,0a0.67,0.67 0 0 0 0.67,-0.96c-0.51,-1.54 -1.05,-3.07 -1.58,-4.6" data-name="Path 55" fill="#fff" id="svg_10" transform="translate(-101.916 -84.144)"/>
   <path d="m130.49,141.43l0,-6.44c0,-0.99 0.35,-1.35 1.33,-1.34c2.12,0.02 4.23,-0.03 6.35,0.04c3.02,0.12 5.26,2.31 4.69,5.93c-0.42,2.61 -2.18,3.94 -5.08,4.01c-0.86,0.02 -1.72,0.01 -2.58,0.02s-1.24,0.39 -1.24,1.25l0,3.15a1.05,1.05 0 0 1 -1.2,1.19l-1.06,0a1.07,1.07 0 0 1 -1.2,-1.2c-0.01,-1.22 0,-2.45 0,-3.68l0,-2.93m3.47,-2.8c0,0.43 -0.01,0.86 0,1.29a1,1 0 0 0 0.97,1.05a14.79,14.79 0 0 0 2.84,-0.09a2.26,2.26 0 0 0 0.04,-4.43a12.97,12.97 0 0 0 -2.96,-0.09a0.95,0.95 0 0 0 -0.89,0.99c-0.02,0.42 0,0.85 0,1.28" data-name="Path 56" fill="#fff" id="svg_11" transform="translate(-82.157 -84.147)"/>
   <path d="m80.28,133.66l5.19,0c0.8,0 1.14,0.37 1.18,1.16c0.07,1.38 -0.26,1.8 -1.7,1.72c-0.58,-0.03 -1.15,0 -1.73,0c-0.86,0 -1.25,0.39 -1.25,1.25l0,10.07c0,1.06 -0.32,1.38 -1.37,1.38l-0.89,0a1.03,1.03 0 0 1 -1.17,-1.16l0,-10.17c0,-1.01 -0.35,-1.37 -1.35,-1.37l-2.22,0a1.04,1.04 0 0 1 -1.12,-1.1c-0.05,-1.25 0.05,-1.86 1.72,-1.79c1.56,0.06 3.14,0.01 4.7,0.01" data-name="Path 57" fill="#1775d3" id="svg_12" transform="translate(-46.49 -84.141)"/>
   <path d="m216.81,147.14l0,1.27a0.98,0.98 0 0 1 -1,0.83q-4.48,0 -8.97,0a1.03,1.03 0 0 1 -1.04,-1.18l0,-13.18c0,-0.86 0.38,-1.23 1.25,-1.24c0.37,0 0.74,0 1.11,0a1.01,1.01 0 0 1 1.09,1.12l0,10.3c0,0.91 0.35,1.26 1.26,1.26l5.15,0a1.04,1.04 0 0 1 1.15,0.82" data-name="Path 58" fill="#fff" id="svg_13" transform="translate(-129.572 -84.14)"/>
   <path d="m113.2,141.42l0,-6.57c0,-0.84 0.37,-1.2 1.22,-1.2l1.07,0a1.05,1.05 0 0 1 1.16,1.15c0.01,1.42 0,2.84 0,4.26l0,8.88c0,0.92 -0.38,1.3 -1.29,1.3l-1.06,0a1.02,1.02 0 0 1 -1.1,-1.11l0,-6.7" data-name="Path 59" fill="#1775d3" id="svg_14" transform="translate(-71.268 -84.142)"/>
   <path d="m21.9,60.83c-0.11,0.19 -0.23,0.38 -0.34,0.57c-0.5,0.86 -0.51,0.86 -1.38,0.36c-1.73,-0.99 -3.45,-1.99 -5.18,-2.96c-0.26,-0.15 -0.34,-0.26 -0.15,-0.53c0.25,-0.36 0.39,-0.95 0.71,-1.07s0.76,0.34 1.14,0.56c1.64,0.94 3.27,1.88 4.9,2.82c0.11,0.07 0.25,0.09 0.3,0.25" data-name="Path 60" fill="#fff" id="svg_15" transform="translate(-9.283 -36.002)"/>
   <path d="m218.72,116.76c-1.11,0 -2.22,0 -3.32,0.01c-0.27,0 -0.38,-0.05 -0.36,-0.34c0.03,-0.45 -0.14,-1.05 0.08,-1.33s0.86,-0.08 1.31,-0.08c1.82,-0.01 3.64,0 5.46,-0.02c0.35,0 0.51,0.07 0.47,0.46a5.59,5.59 0 0 0 0,0.97c0.02,0.28 -0.09,0.34 -0.36,0.34c-1.09,-0.01 -2.19,-0.01 -3.28,-0.01" data-name="Path 61" fill="#fff" id="svg_16" transform="translate(-135.368 -72.372)"/>
   <path d="m58.05,14.85c0.13,0 0.15,0.12 0.2,0.2l3.43,5.84c0.11,0.19 0.13,0.3 -0.1,0.41c-0.34,0.17 -0.67,0.37 -1,0.57c-0.18,0.11 -0.29,0.11 -0.41,-0.1c-1.14,-1.97 -2.29,-3.92 -3.44,-5.89c-0.06,-0.1 -0.16,-0.19 0,-0.29c0.41,-0.23 0.82,-0.47 1.23,-0.71a0.69,0.69 0 0 1 0.09,-0.03" data-name="Path 62" fill="#fff" id="svg_17" transform="translate(-35.666 -9.351)"/>
   <path d="m208.36,58.37c0,0.14 -0.12,0.17 -0.2,0.22l-5.9,3.39c-0.19,0.11 -0.27,0.09 -0.37,-0.1c-0.23,-0.41 -0.7,-0.85 -0.64,-1.21s0.72,-0.52 1.12,-0.75c1.6,-0.94 3.22,-1.85 4.83,-2.79c0.25,-0.14 0.39,-0.17 0.53,0.13s0.34,0.59 0.51,0.89c0.04,0.07 0.08,0.15 0.12,0.22" data-name="Path 63" fill="#fff" id="svg_18" transform="translate(-126.702 -35.904)"/>
   <path d="m165.74,22.04c-0.47,-0.27 -0.92,-0.51 -1.36,-0.78c-0.13,-0.08 0,-0.19 0.04,-0.27c1.15,-1.96 2.3,-3.92 3.44,-5.88c0.12,-0.21 0.22,-0.22 0.41,-0.1a9.61,9.61 0 0 0 0.96,0.55c0.26,0.13 0.24,0.25 0.11,0.47c-1.12,1.91 -2.24,3.82 -3.35,5.73c-0.07,0.11 -0.1,0.25 -0.25,0.28" data-name="Path 64" fill="#fff" id="svg_19" transform="translate(-103.457 -9.4)"/>
   <path d="m9.95,81.47c0.1,0.04 0.16,0.06 0.23,0.09c1.11,0.35 2.21,0.72 3.33,1.06c0.26,0.08 0.26,0.19 0.19,0.41c-0.2,0.62 -0.19,0.62 -0.81,0.42c-1.01,-0.33 -2.02,-0.65 -3.03,-0.98c-0.13,-0.05 -0.33,-0.05 -0.24,-0.27c0.1,-0.25 0.07,-0.56 0.33,-0.73" data-name="Path 65" fill="#fff" id="svg_20" transform="translate(-6.042 -51.296)"/>
   <path d="m17.81,72.33c-0.1,0.2 -0.18,0.44 -0.3,0.65c-0.07,0.11 -0.19,0.05 -0.28,0q-1.65,-0.73 -3.31,-1.46c-0.16,-0.07 -0.25,-0.13 -0.13,-0.32a3.23,3.23 0 0 0 0.2,-0.48c0.06,-0.17 0.14,-0.18 0.3,-0.1c1.11,0.5 2.23,0.98 3.35,1.48c0.08,0.04 0.22,0.05 0.17,0.23" data-name="Path 66" fill="#fff" id="svg_21" transform="translate(-8.648 -44.431)"/>
   <path d="m83.42,13.42c0.03,0.14 -0.06,0.18 -0.17,0.21a4.51,4.51 0 0 0 -0.46,0.15c-0.2,0.09 -0.28,0.01 -0.34,-0.19q-0.55,-1.7 -1.12,-3.4c-0.07,-0.21 -0.01,-0.3 0.18,-0.35a2.81,2.81 0 0 0 0.47,-0.14c0.14,-0.07 0.22,-0.03 0.26,0.11q0.58,1.78 1.17,3.57l0.01,0.04" data-name="Path 67" fill="#fff" id="svg_22" transform="translate(-51.189 -6.089)"/>
   <path d="m217.03,93.88c-0.04,-0.17 0.07,-0.2 0.22,-0.23c1.18,-0.25 2.36,-0.49 3.54,-0.75c0.2,-0.05 0.28,-0.01 0.3,0.18a2.22,2.22 0 0 0 0.08,0.39c0.08,0.26 -0.01,0.36 -0.27,0.41c-1.14,0.23 -2.28,0.48 -3.42,0.72c-0.2,0.05 -0.34,0.03 -0.36,-0.22c-0.02,-0.16 -0.06,-0.32 -0.09,-0.5" data-name="Path 68" fill="#fff" id="svg_23" transform="translate(-136.634 -58.479)"/>
   <path d="m160.58,14.3c-0.04,0.09 -0.07,0.18 -0.1,0.26c-0.47,1.05 -0.96,2.09 -1.4,3.15c-0.13,0.3 -0.25,0.27 -0.49,0.15c-0.55,-0.26 -0.55,-0.25 -0.3,-0.81c0.41,-0.92 0.84,-1.85 1.23,-2.79c0.15,-0.36 0.32,-0.45 0.64,-0.23c0.14,0.1 0.35,0.08 0.42,0.27" data-name="Path 69" fill="#fff" id="svg_24" transform="translate(-99.555 -8.755)"/>
   <path d="m210.62,73.04c-0.23,-0.17 -0.25,-0.47 -0.38,-0.7c-0.11,-0.2 0.07,-0.22 0.18,-0.27c1.08,-0.48 2.18,-0.96 3.26,-1.45c0.22,-0.1 0.33,-0.08 0.39,0.15a0.95,0.95 0 0 0 0.12,0.29c0.17,0.26 0.1,0.38 -0.19,0.5c-1.03,0.43 -2.05,0.9 -3.07,1.35c-0.09,0.04 -0.19,0.08 -0.31,0.13" data-name="Path 70" fill="#fff" id="svg_25" transform="translate(-132.344 -44.426)"/>
   <path d="m50.67,25.47c0.12,0 0.15,0.09 0.2,0.16c0.71,0.98 1.42,1.96 2.14,2.93c0.14,0.18 0.11,0.27 -0.07,0.37a2.21,2.21 0 0 0 -0.39,0.28c-0.14,0.12 -0.22,0.1 -0.32,-0.04q-1.07,-1.49 -2.16,-2.97c-0.09,-0.13 -0.12,-0.22 0.03,-0.32c0.2,-0.13 0.38,-0.28 0.57,-0.41" data-name="Path 71" fill="#fff" id="svg_26" transform="translate(-31.476 -16.036)"/>
   <path d="m41.55,32.86c0.12,0 0.17,0.08 0.23,0.14c0.81,0.9 1.61,1.8 2.43,2.69c0.13,0.14 0.14,0.24 -0.02,0.35a1.14,1.14 0 0 0 -0.26,0.24c-0.2,0.25 -0.35,0.21 -0.55,-0.02a97.82,97.82 0 0 0 -2.22,-2.46c-0.24,-0.26 -0.31,-0.43 0.04,-0.63a2.4,2.4 0 0 0 0.35,-0.31" data-name="Path 72" fill="#fff" id="svg_27" transform="translate(-25.788 -20.687)"/>
   <path d="m193.15,44.65a7.78,7.78 0 0 1 -0.55,-0.63c-0.13,-0.19 0.09,-0.25 0.18,-0.34c0.83,-0.75 1.68,-1.5 2.5,-2.25c0.21,-0.19 0.38,-0.3 0.54,0.01c0.12,0.21 0.6,0.33 0.15,0.71c-0.88,0.74 -1.72,1.53 -2.58,2.3c-0.07,0.06 -0.14,0.11 -0.24,0.2" data-name="Path 73" fill="#fff" id="svg_28" transform="translate(-121.234 -25.967)"/>
   <path d="m203.3,51.03c0,0.13 -0.11,0.17 -0.18,0.23c-0.97,0.7 -1.94,1.39 -2.9,2.1c-0.18,0.13 -0.25,0.1 -0.38,-0.06c-0.44,-0.56 -0.45,-0.56 0.11,-0.96c0.8,-0.58 1.62,-1.14 2.4,-1.75c0.33,-0.26 0.54,-0.28 0.73,0.11a2.71,2.71 0 0 0 0.23,0.33" data-name="Path 74" fill="#fff" id="svg_29" transform="translate(-125.618 -31.735)"/>
   <path d="m10.87,93.9l-0.02,0.07c-0.11,0.69 -0.11,0.69 -0.79,0.55c-1.02,-0.22 -2.04,-0.46 -3.06,-0.65c-0.36,-0.07 -0.35,-0.25 -0.25,-0.49c0.08,-0.2 -0.09,-0.61 0.44,-0.48c1.13,0.28 2.27,0.5 3.41,0.73c0.18,0.04 0.33,0.07 0.27,0.27" data-name="Path 75" fill="#fff" id="svg_30" transform="translate(-4.21 -58.479)"/>
   <path d="m71.06,13.87c0.16,0.01 0.17,0.12 0.21,0.21c0.49,1.09 0.97,2.18 1.47,3.27c0.09,0.2 0.05,0.29 -0.15,0.36a2.23,2.23 0 0 0 -0.4,0.18c-0.16,0.1 -0.25,0.08 -0.33,-0.11q-0.74,-1.68 -1.5,-3.35c-0.07,-0.16 -0.06,-0.23 0.11,-0.3c0.21,-0.08 0.4,-0.18 0.59,-0.26" data-name="Path 76" fill="#fff" id="svg_31" transform="translate(-44.273 -8.732)"/>
   <path d="m139.32,7.05c-0.26,1.26 -0.52,2.44 -0.76,3.63c-0.04,0.19 -0.13,0.23 -0.31,0.2c-0.72,-0.1 -0.72,-0.09 -0.57,-0.79c0.23,-1.04 0.45,-2.08 0.66,-3.12c0.04,-0.24 0.16,-0.31 0.36,-0.22s0.6,-0.05 0.62,0.3" data-name="Path 77" fill="#fff" id="svg_32" transform="translate(-86.633 -4.227)"/>
   <path d="m33.27,41.04c0.1,0.09 0.2,0.16 0.28,0.23c0.86,0.77 1.72,1.55 2.59,2.3c0.2,0.17 0.19,0.26 0.02,0.45c-0.45,0.49 -0.44,0.5 -0.91,0.08c-0.76,-0.68 -1.51,-1.38 -2.29,-2.04c-0.28,-0.24 -0.31,-0.4 -0.03,-0.64a3.43,3.43 0 0 0 0.34,-0.38" data-name="Path 78" fill="#fff" id="svg_33" transform="translate(-20.61 -25.841)"/>
   <path d="m28.63,53.49c-0.11,-0.07 -0.19,-0.13 -0.27,-0.19c-0.92,-0.66 -1.84,-1.34 -2.77,-1.99c-0.25,-0.17 -0.28,-0.29 -0.08,-0.53c0.37,-0.47 0.35,-0.48 0.84,-0.13c0.85,0.61 1.68,1.24 2.55,1.83c0.27,0.19 0.31,0.33 0.09,0.57c-0.13,0.13 -0.24,0.29 -0.35,0.44" data-name="Path 79" fill="#fff" id="svg_34" transform="translate(-15.978 -31.733)"/>
   <path d="m188.44,33.51c-0.08,0.1 -0.15,0.18 -0.21,0.26c-0.77,0.85 -1.55,1.7 -2.31,2.56c-0.18,0.2 -0.3,0.24 -0.48,0.03a0.94,0.94 0 0 0 -0.23,-0.21c-0.24,-0.15 -0.22,-0.27 -0.04,-0.47a93.97,93.97 0 0 0 2.28,-2.53c0.22,-0.26 0.37,-0.28 0.58,-0.03a5,5 0 0 0 0.41,0.39" data-name="Path 80" fill="#fff" id="svg_35" transform="translate(-116.496 -20.742)"/>
   <path d="m218.31,82.3c0.05,0.15 -0.08,0.17 -0.17,0.19c-1.16,0.39 -2.33,0.76 -3.49,1.15c-0.15,0.05 -0.25,0.03 -0.3,-0.14a3.64,3.64 0 0 0 -0.14,-0.47c-0.08,-0.2 -0.03,-0.28 0.18,-0.35q1.71,-0.53 3.41,-1.1c0.2,-0.06 0.3,-0.03 0.35,0.17c0.05,0.19 0.11,0.37 0.16,0.55" data-name="Path 81" fill="#fff" id="svg_36" transform="translate(-134.844 -51.344)"/>
   <path d="m179.78,26.05c-0.06,0.08 -0.1,0.14 -0.14,0.2c-0.7,0.97 -1.42,1.94 -2.11,2.91c-0.13,0.19 -0.24,0.22 -0.4,0.06a2.3,2.3 0 0 0 -0.36,-0.27c-0.16,-0.1 -0.19,-0.17 -0.07,-0.34q1.09,-1.46 2.15,-2.93c0.11,-0.16 0.2,-0.22 0.37,-0.06s0.37,0.29 0.56,0.43" data-name="Path 82" fill="#fff" id="svg_37" transform="translate(-111.206 -16.071)"/>
   <path d="m148.69,13.84c-0.22,-0.06 -0.44,-0.13 -0.66,-0.21c-0.14,-0.05 -0.09,-0.17 -0.06,-0.27c0.38,-1.16 0.76,-2.32 1.13,-3.48c0.06,-0.17 0.14,-0.2 0.29,-0.14a3.82,3.82 0 0 0 0.5,0.16c0.18,0.05 0.2,0.12 0.14,0.29c-0.38,1.16 -0.75,2.32 -1.13,3.48c-0.03,0.09 -0.06,0.21 -0.21,0.17" data-name="Path 83" fill="#fff" id="svg_38" transform="translate(-93.142 -6.112)"/>
   <path d="m94.46,10.48c0.01,0.07 0.04,0.18 -0.05,0.2a2.47,2.47 0 0 1 -0.77,0.16c-0.21,-0.01 -0.15,-0.28 -0.18,-0.45c-0.24,-1.09 -0.47,-2.19 -0.72,-3.28c-0.05,-0.23 0.06,-0.33 0.22,-0.3c0.24,0.04 0.59,-0.39 0.7,0.05c0.3,1.2 0.54,2.42 0.8,3.63" data-name="Path 84" fill="#fff" id="svg_39" transform="translate(-58.383 -4.188)"/>
   <path d="m222.88,105.08c0.09,0.29 -0.07,0.37 -0.36,0.4c-1.12,0.1 -2.24,0.21 -3.35,0.35c-0.61,0.07 -0.34,-0.41 -0.44,-0.64c-0.13,-0.3 0.11,-0.31 0.33,-0.34c1.07,-0.1 2.14,-0.23 3.22,-0.33c0.56,-0.06 0.56,-0.05 0.6,0.56" data-name="Path 85" fill="#fff" id="svg_40" transform="translate(-137.689 -65.788)"/>
   <path d="m105.08,4.99c0.23,-0.08 0.3,0.05 0.33,0.31c0.11,1.18 0.25,2.35 0.38,3.53c0.02,0.16 -0.02,0.22 -0.2,0.25c-0.75,0.13 -0.77,0.12 -0.83,-0.63c-0.09,-0.95 -0.19,-1.89 -0.29,-2.83c-0.06,-0.6 -0.06,-0.6 0.6,-0.63" data-name="Path 86" fill="#fff" id="svg_41" transform="translate(-65.76 -3.128)"/>
   <path d="m5.41,104.43c1.23,0.13 2.37,0.25 3.52,0.36c0.19,0.02 0.26,0.08 0.22,0.28a1.19,1.19 0 0 0 -0.04,0.35c0.03,0.34 -0.15,0.37 -0.43,0.34c-1.08,-0.13 -2.17,-0.26 -3.25,-0.34c-0.43,-0.03 -0.46,-0.21 -0.42,-0.55c0.03,-0.32 0.04,-0.6 0.4,-0.44" data-name="Path 87" fill="#fff" id="svg_42" transform="translate(-3.144 -65.719)"/>
   <path d="m127.77,5.02c0.44,-0.08 0.56,0.09 0.49,0.55c-0.15,1.08 -0.25,2.17 -0.35,3.26c-0.02,0.26 -0.09,0.38 -0.37,0.3a1.14,1.14 0 0 0 -0.35,-0.04c-0.21,0 -0.28,-0.06 -0.26,-0.29c0.13,-1.14 0.25,-2.29 0.36,-3.43c0.03,-0.32 0.13,-0.47 0.48,-0.35" data-name="Path 88" fill="#fff" id="svg_43" transform="translate(-79.914 -3.134)"/>
  </g>
  <text fill="#ffffff" font-family="Serif" font-size="12" id="svg_44" stroke="#000000" stroke-width="0" text-anchor="middle" x="81.77" xml:space="preserve" y="11.59">®</text>
 </g>
</svg>