<svg xmlns="http://www.w3.org/2000/svg" width="40.5" height="35.993" viewBox="0 0 40.5 35.993">
    <path data-name="Icon awesome-edit" d="m28.308 5.85 6.342 6.342a.687.687 0 0 1 0 .97L19.294 28.519l-6.525.724a1.368 1.368 0 0 1-1.512-1.512l.724-6.525L27.337 5.85a.687.687 0 0 1 .971 0zM39.7 4.24 36.267.809a2.75 2.75 0 0 0-3.881 0L29.9 3.3a.687.687 0 0 0 0 .97l6.342 6.342a.687.687 0 0 0 .97 0L39.7 8.121a2.75 2.75 0 0 0 0-3.881zM27 24.342V31.5H4.5V9h16.158a.865.865 0 0 0 .6-.246l2.813-2.812a.844.844 0 0 0-.6-1.441H3.375A3.376 3.376 0 0 0 0 7.875v24.75A3.376 3.376 0 0 0 3.375 36h24.75a3.376 3.376 0 0 0 3.375-3.375V21.53a.845.845 0 0 0-1.441-.6l-2.812 2.813a.865.865 0 0 0-.247.599z" transform="translate(0 -.007)" style="fill:#fda31e"/>
</svg>
