<svg xmlns="http://www.w3.org/2000/svg" width="36" height="36" viewBox="0 0 36 36">
    <path data-name="Icon open-dashboard" d="M18 0a18 18 0 1 0 18 18A18.053 18.053 0 0 0 18 0zm0 4.5A13.5 13.5 0 1 1 4.5 18 13.482 13.482 0 0 1 18 4.5zM18 9a2.25 2.25 0 1 0 2.25 2.25A2.228 2.228 0 0 0 18 9zm-7.47 4.5a2.25 2.25 0 0 0-.855 3.78l4.095 4.095a4.569 4.569 0 0 0-.27 1.125A4.5 4.5 0 1 0 18 18a4.569 4.569 0 0 0-1.125.27l-4.095-4.095a2.25 2.25 0 0 0-1.98-.72 2.25 2.25 0 0 0-.27 0zm14.22 0A2.25 2.25 0 1 0 27 15.75a2.228 2.228 0 0 0-2.25-2.25z" style="fill:#fda31e"/>
</svg>
