<svg id="Switch_Dark" data-name="Switch Dark" xmlns="http://www.w3.org/2000/svg" width="51" height="31" viewBox="0 0 51 31">
    <defs>
        <clipPath id="clip-path">
            <path id="Race_Track" data-name="Race Track" d="M15.857.092C17.6-.008 19.335 0 21.075 0h8.817c1.774 0 3.512-.008 5.251.092A21.645 21.645 0 0 1 39.8.8a15.242 15.242 0 0 1 0 29.394 21.707 21.707 0 0 1-4.654.711c-1.739.1-3.477.091-5.217.091h-8.822c-1.772 0-3.51.008-5.25-.092A21.708 21.708 0 0 1 11.2 30.2a15.242 15.242 0 0 1 0-29.4 21.645 21.645 0 0 1 4.657-.708z" style="fill:#34c759"/>
        </clipPath>
        <clipPath id="clip-path-2">
            <path id="Mask" d="M15.857.092C17.6-.008 19.335 0 21.075 0h8.817c1.774 0 3.512-.008 5.251.092A21.645 21.645 0 0 1 39.8.8a15.242 15.242 0 0 1 0 29.394 21.707 21.707 0 0 1-4.654.711c-1.739.1-3.477.091-5.217.091h-8.822c-1.772 0-3.51.008-5.25-.092A21.708 21.708 0 0 1 11.2 30.2a15.242 15.242 0 0 1 0-29.4 21.645 21.645 0 0 1 4.657-.708z" style="fill:none"/>
        </clipPath>
        <filter id="knob" x="20" y="1.5" width="31" height="32.5" filterUnits="userSpaceOnUse">
            <feOffset dy="3"/>
            <feGaussianBlur stdDeviation=".5" result="blur"/>
            <feFlood flood-opacity=".059"/>
            <feComposite operator="in" in2="blur"/>
            <feComposite in="SourceGraphic"/>
        </filter>
        <style>
            
        </style>
    </defs>
    <g id="Switch_-_On" data-name="Switch - On">
        <g id="Accent_Color" data-name="Accent Color">
            <path id="Race_Track-2" data-name="Race Track" d="M15.857.092C17.6-.008 19.335 0 21.075 0h8.817c1.774 0 3.512-.008 5.251.092A21.645 21.645 0 0 1 39.8.8a15.242 15.242 0 0 1 0 29.394 21.707 21.707 0 0 1-4.654.711c-1.739.1-3.477.091-5.217.091h-8.822c-1.772 0-3.51.008-5.25-.092A21.708 21.708 0 0 1 11.2 30.2a15.242 15.242 0 0 1 0-29.4 21.645 21.645 0 0 1 4.657-.708z" style="fill:#32d74b"/>
        </g>
        <g id="Group_2" data-name="Group 2">
            <path id="Mask-2" data-name="Mask" d="M15.857.092C17.6-.008 19.335 0 21.075 0h8.817c1.774 0 3.512-.008 5.251.092A21.645 21.645 0 0 1 39.8.8a15.242 15.242 0 0 1 0 29.394 21.707 21.707 0 0 1-4.654.711c-1.739.1-3.477.091-5.217.091h-8.822c-1.772 0-3.51.008-5.25-.092A21.708 21.708 0 0 1 11.2 30.2a15.242 15.242 0 0 1 0-29.4 21.645 21.645 0 0 1 4.657-.708z" style="fill:none"/>
            <g id="Mask_Group_2" data-name="Mask Group 2" style="clip-path:url(#clip-path-2)">
                <g style="filter:url(#knob)" id="Knob-2" data-name="Knob">
                    <g id="knob-3" data-name="knob" transform="translate(22 2)" style="fill:#fff;stroke:rgba(0,0,0,.04);stroke-miterlimit:10;stroke-width:.5px">
                        <circle cx="13.5" cy="13.5" r="13.5" style="stroke:none"/>
                        <circle cx="13.5" cy="13.5" r="13.75" style="fill:none"/>
                    </g>
                </g>
            </g>
        </g>
    </g>
</svg>
