<svg data-name="Group 83" xmlns="http://www.w3.org/2000/svg" width="36.244" height="34.158" viewBox="0 0 36.244 34.158">
    <defs>
        <clipPath id="xeopa1jyda">
            <path data-name="Rectangle 16" style="fill:#12991c" d="M0 0h36.244v34.158H0z"/>
        </clipPath>
    </defs>
    <g data-name="Group 82" style="clip-path:url(#xeopa1jyda)">
        <path data-name="Path 95" d="M32.758 6.322a4.221 4.221 0 0 1 3.485 4.421v19.079A4.149 4.149 0 0 1 33.149 34a4.672 4.672 0 0 1-1.2.151q-13.827.012-27.655 0A4.168 4.168 0 0 1 0 29.859Q0 18.751.007 7.643a10.145 10.145 0 0 1 .765-4.035A5.638 5.638 0 0 1 5.534.094 12.239 12.239 0 0 1 7.14 0h21.166a4.19 4.19 0 0 1 4.452 4.439v1.884M2.972 6.242h27V4.429a1.443 1.443 0 0 0-1.662-1.641H7.055c-.247 0-.494 0-.74.014a3.3 3.3 0 0 0-3.342 3.44m28.391 14.3a3.135 3.135 0 1 0-3.147 3.158 3.142 3.142 0 0 0 3.146-3.158" transform="translate(0 .001)" style="fill:#12991c"/>
    </g>
</svg>
