<svg xmlns="http://www.w3.org/2000/svg" width="36" height="36" viewBox="0 0 36 36">
    <defs>
        <clipPath id="r0ma3a3pia">
            <path data-name="Rectangle 14" style="fill:#fff" d="M0 0h36v36H0z"/>
        </clipPath>
    </defs>
    <g data-name="Group 76">
        <g data-name="Group 75" style="clip-path:url(#r0ma3a3pia)">
            <path data-name="Path 91" d="M25.471 68.609H7.087a2.072 2.072 0 0 0-.232-.063 7.68 7.68 0 0 1-6.424-5.23A14.759 14.759 0 0 1 0 61.522V43.138c.057-.3.107-.595.172-.889a7.81 7.81 0 0 1 7.7-6.186c3.67-.012 7.341 0 11.011 0 .1 0 .2.009.343.016a9.917 9.917 0 0 0-.9 6.025 9.338 9.338 0 0 0 2.8 5.414c3.356 3.164 7.2 3.664 11.412 1.92a.844.844 0 0 1 .016.121c0 3.834.042 7.669-.019 11.5a7.675 7.675 0 0 1-5.035 7.033 18.888 18.888 0 0 1-2.025.517" transform="translate(-.168 -32.609)" style="fill:#fff"/>
            <path data-name="Path 92" d="M232.588 8.49c-.14.612-.23 1.241-.428 1.834a7.808 7.808 0 0 1-15.089-1.172A7.8 7.8 0 0 1 223.863.06 1.8 1.8 0 0 0 224.1 0h1.4a1.221 1.221 0 0 0 .194.062 7.685 7.685 0 0 1 6.515 5.4 13.968 13.968 0 0 1 .378 1.7z" transform="translate(-196.83 .074)" style="fill:#fff"/>
        </g>
    </g>
</svg>
