<svg xmlns="http://www.w3.org/2000/svg" width="46.25" height="46.25" viewBox="0 0 46.25 46.25">
    <path data-name="Icon ionic-ios-close-circle" d="M26.5 3.375A23.125 23.125 0 1 0 49.625 26.5 23.121 23.121 0 0 0 26.5 3.375zm5.859 31.5L26.5 29.013l-5.859 5.859a1.777 1.777 0 1 1-2.513-2.513l5.859-5.859-5.859-5.859a1.777 1.777 0 0 1 2.513-2.513l5.859 5.859 5.859-5.859a1.777 1.777 0 0 1 2.513 2.513L29.013 26.5l5.859 5.859a1.785 1.785 0 0 1 0 2.513 1.765 1.765 0 0 1-2.513 0z" transform="translate(-3.375 -3.375)" style="fill:#fff;opacity:.8"/>
</svg>
