<svg data-name="Group 64" xmlns="http://www.w3.org/2000/svg" width="195" height="146.165" viewBox="0 0 195 146.165">
    <defs>
        <clipPath id="mj5lycsxba">
            <path data-name="Rectangle 12" style="fill:none" d="M0 0h195v146.165H0z"/>
        </clipPath>
    </defs>
    <g data-name="Group 61" style="clip-path:url(#mj5lycsxba)">
        <path data-name="Path 48" d="M48.573 169.089a29.165 29.165 0 0 0-3.309-.8 12.117 12.117 0 0 1-7.655-5.842 9.135 9.135 0 0 1-1.023-3.286 2 2 0 0 1 1.872-2.428 21.3 21.3 0 0 1 3.265-.012 2.23 2.23 0 0 1 2.122 1.539c1.013 3.3 3.5 4.539 6.65 4.829a10.267 10.267 0 0 0 5.239-.745 3.765 3.765 0 0 0 2.511-3.385 3.515 3.515 0 0 0-2.122-3.308A19.443 19.443 0 0 0 51.37 154a57.768 57.768 0 0 1-7.4-2.16c-2.981-1.194-5.351-3.02-6.184-6.315a9.563 9.563 0 0 1 3.7-10.164 15.621 15.621 0 0 1 10.426-2.692 15.768 15.768 0 0 1 7.995 2.3 9.509 9.509 0 0 1 4.259 5.859c.469 1.96-.406 3.065-2.427 3.073-.3 0-.6-.026-.892 0-2.08.215-3.679-.294-4.435-2.52a3.706 3.706 0 0 0-2.455-2.166 10.433 10.433 0 0 0-5.957-.278 4.144 4.144 0 0 0-2.165 1.321 3.079 3.079 0 0 0 .97 5.028c2.592 1.2 5.415 1.658 8.152 2.382a22.076 22.076 0 0 1 5.606 1.887c3.082 1.787 5.049 4.271 5.107 8.015a9.967 9.967 0 0 1-4.989 9.282 15.845 15.845 0 0 1-6.161 2.029c-.207.029-.481-.1-.6.208z" transform="translate(-6.32 -22.924)" style="fill:#1775d3"/>
        <path data-name="Path 49" d="M0 115.087c5.149.009 10.3.042 15.447 0 .887-.007 1.171.223 1.072 1.091a9.937 9.937 0 0 0 0 1.978c.06.688-.17.889-.87.884-4.16-.033-8.32-.018-12.48-.016-1.055 0-2.11.017-3.166.026v-3.966" transform="translate(0 -19.891)" style="fill:#fff"/>
        <path data-name="Path 50" d="M119.061 0c-.22.336-.072.7-.073 1.051-.013 4.79-.026 9.58.008 14.369.006.771-.1 1.155-1 1.059-.912-.1-2.146.294-2.679-.171-.62-.539-.185-1.8-.192-2.742-.025-4.522-.025-9.044-.031-13.566z" transform="translate(-19.874)" style="fill:#fff"/>
        <path data-name="Path 51" d="M235.709 172.968a.2.2 0 0 0-.177-.06l-.007-2.841.184-.073z" transform="translate(-40.708 -29.382)" style="fill:#0060a9"/>
        <path data-name="Path 52" d="M91.046 35.755c7.076 0 14.15.012 21.226-.016.83 0 1.072.089.8 1.01-1.256 4.3-2.443 8.626-3.617 12.952a1.081 1.081 0 0 1-1.262.962c-9.124-.034-18.25-.022-27.375-.022-2.578 0-3.825.925-4.539 3.377q-1 3.417-1.974 6.837c-.558 1.951.234 2.993 2.271 2.994h14.283c2.332 0 3.108 1.045 2.459 3.276q-1.242 4.273-2.48 8.548a3.934 3.934 0 0 1-4.066 3.085c-4.86.014-9.721 0-14.58 0a3.819 3.819 0 0 0-3.874 2.9c-.737 2.5-1.45 5-2.156 7.506-.5 1.761.3 2.853 2.146 2.87 2.975.029 5.951.008 8.927.008h17.159c2.066 0 2.848 1.061 2.271 3.075l-2.482 8.651a3.981 3.981 0 0 1-4.221 3.148H49.396c-2.164 0-2.973-1.108-2.367-3.209Q53.26 82.1 59.489 60.49q3.094-10.737 6.186-21.476a4.014 4.014 0 0 1 4.343-3.259h21.027" transform="translate(-8.095 -6.177)" style="fill:#fff"/>
        <path data-name="Path 53" d="M135.42 50.633c-3.668 0-7.337-.017-11.005.013-.745.007-.974-.1-.735-.921a832.65 832.65 0 0 0 3.644-13.05c.2-.73.522-.944 1.286-.939 5.949.039 11.9.02 17.847.022a21.5 21.5 0 0 1 3.085 42.771 50.569 50.569 0 0 1-6.928.2c-2.744.007-5.487 0-8.229 0a3.862 3.862 0 0 0-4.141 3.084q-3.16 10.926-6.307 21.855a3.974 3.974 0 0 1-4.262 3.222h-8.329c-2.088 0-2.909-1.055-2.337-3.053q4.81-16.781 9.64-33.555.479-1.664.954-3.328a3.928 3.928 0 0 1 4.072-3.07l22.6-.031a6.614 6.614 0 1 0 .046-13.221c-3.636-.017-7.272 0-10.907 0" transform="translate(-18.81 -6.177)" style="fill:#2075d3"/>
        <path data-name="Path 54" d="M.756 151.094v-14.377c0-2.311.768-3.068 3.107-3.068h20.132c2.065 0 2.881.818 2.886 2.875 0 .463.032.929-.01 1.388a2.323 2.323 0 0 1-2.46 2.2c-4.364.007-8.727 0-13.091 0-1.991 0-2.823.838-2.826 2.826 0 .695-.006 1.389 0 2.083a2.221 2.221 0 0 0 2.447 2.457c3.769.007 7.537 0 11.306 0 2.7 0 4.087 2.287 2.865 4.732a2.386 2.386 0 0 1-2.368 1.309c-3.735-.016-7.471-.007-11.206-.006-2.292 0-3.044.744-3.044 3v2.875a2.276 2.276 0 0 0 2.553 2.563q6.595.007 13.19 0c2.209 0 3.041.835 3.037 3.059a9.011 9.011 0 0 1-.054 1.481 2.245 2.245 0 0 1-2.266 1.965q-10.959.025-21.917 0c-1.414 0-2.276-1.079-2.28-2.691q-.014-6.494 0-12.988v-1.686" transform="translate(-.13 -23.1)" style="fill:#1775d3"/>
        <path data-name="Path 55" d="M178.334 133.648h1.289a3.453 3.453 0 0 1 3.545 2.455q4.939 13.18 9.866 26.366c.462 1.234.945 2.46 1.378 3.7.494 1.419-.1 2.273-1.583 2.3q-1.586.026-3.172 0a3.358 3.358 0 0 1-3.167-2.268c-.361-.99-.677-2-1.017-3a3.359 3.359 0 0 0-3.414-2.467q-3.916-.006-7.83 0a3.411 3.411 0 0 0-3.4 2.376c-.346.96-.671 1.928-1.012 2.889a3.423 3.423 0 0 1-3.428 2.467c-.925.006-1.85.013-2.775 0-1.477-.025-2.081-.907-1.557-2.314 1.254-3.362 2.529-6.717 3.8-10.073q3.668-9.7 7.339-19.4c.931-2.459 1.778-3.033 4.443-3.033h.694m0 8.894-.213-.03c-1.247 3.535-2.527 7.059-3.716 10.613-.335 1 .364 1.8 1.488 1.841 1.486.05 2.974.049 4.46.006a1.5 1.5 0 0 0 1.517-2.158c-1.151-3.434-2.353-6.85-3.536-10.273" transform="translate(-27.978 -23.099)" style="fill:#fff"/>
        <path data-name="Path 56" d="M130.495 151.017v-14.37c0-2.208.787-3.014 2.971-2.994 4.722.043 9.445-.074 14.168.1 6.755.247 11.751 5.142 10.472 13.224-.922 5.831-4.855 8.8-11.339 8.969-1.915.05-3.832.023-5.749.036s-2.773.875-2.775 2.792c0 2.345.008 4.691 0 7.036a2.348 2.348 0 0 1-2.677 2.666h-2.379a2.394 2.394 0 0 1-2.685-2.69c-.02-2.741-.006-5.483-.006-8.225v-6.541m7.749-6.253c0 .957-.018 1.916 0 2.872a2.232 2.232 0 0 0 2.182 2.357 33.029 33.029 0 0 0 6.323-.2 4.539 4.539 0 0 0 4.108-4.868c.038-2.816-1.292-4.542-4.005-5.027a28.971 28.971 0 0 0-6.611-.2 2.121 2.121 0 0 0-1.994 2.194c-.035.956-.007 1.914-.007 2.872" transform="translate(-22.554 -23.1)" style="fill:#fff"/>
        <path data-name="Path 57" d="M88.208 133.681h11.6c1.788 0 2.55.828 2.634 2.591.148 3.083-.582 4.025-3.788 3.849-1.285-.07-2.577-.014-3.865-.011-1.925 0-2.788.854-2.788 2.778q-.007 11.249 0 22.5c0 2.373-.7 3.084-3.054 3.084h-1.983c-1.769-.012-2.615-.847-2.615-2.6v-22.7c0-2.263-.79-3.062-3.019-3.064-1.652 0-3.3.008-4.956 0a2.321 2.321 0 0 1-2.506-2.45c-.113-2.8.122-4.151 3.84-4.006 3.5.136 7 .029 10.507.029" transform="translate(-12.763 -23.098)" style="fill:#1775d3"/>
        <path data-name="Path 58" d="M230.386 163.784q0 1.421.007 2.84a2.194 2.194 0 0 1-2.239 1.84q-10.013.02-20.026 0c-1.452 0-2.325-1.026-2.327-2.624q-.007-8.771 0-17.542v-11.893c0-1.919.846-2.752 2.788-2.757.826 0 1.653-.013 2.479 0a2.255 2.255 0 0 1 2.441 2.486q.007 11.5 0 22.993c0 2.035.782 2.821 2.8 2.822h11.5a2.32 2.32 0 0 1 2.571 1.829" transform="translate(-35.57 -23.098)" style="fill:#fff"/>
        <path data-name="Path 59" d="M113.2 151.018v-14.674c0-1.874.83-2.691 2.732-2.7.793 0 1.587-.009 2.381 0a2.338 2.338 0 0 1 2.587 2.574c.019 3.172.006 6.345.006 9.518v19.83c0 2.047-.845 2.9-2.874 2.9-.793 0-1.587.011-2.38 0a2.273 2.273 0 0 1-2.45-2.48q-.009-7.487 0-14.972" transform="translate(-19.564 -23.099)" style="fill:#1775d3"/>
        <path data-name="Path 60" d="m30.715 65.332-.754 1.267c-1.13 1.926-1.132 1.931-3.084.814-3.855-2.209-7.7-4.438-11.568-6.625-.581-.328-.749-.574-.337-1.17.56-.807.866-2.126 1.588-2.392.742-.273 1.691.767 2.537 1.25 3.659 2.088 7.3 4.2 10.952 6.307.245.141.569.2.665.548" transform="translate(-2.548 -9.883)" style="fill:#fff"/>
        <path data-name="Path 61" d="M223.3 119c-2.476 0-4.951-.017-7.425.013-.585.007-.834-.111-.789-.754.07-1.015-.327-2.348.181-2.966.532-.647 1.917-.192 2.926-.2 4.06-.022 8.119.013 12.178-.029.8-.007 1.138.151 1.05 1.008a12.488 12.488 0 0 0 0 2.175c.045.629-.2.768-.791.761-2.442-.03-4.884-.012-7.327-.012" transform="translate(-37.161 -19.868)" style="fill:#fff"/>
        <path data-name="Path 62" d="M59.788 14.853c.28.007.325.273.433.457l7.668 13.034c.25.423.285.663-.215.913-.765.384-1.5.823-2.232 1.275-.418.259-.65.251-.925-.222-2.547-4.388-5.119-8.761-7.682-13.14-.125-.213-.359-.435.015-.65.913-.526 1.823-1.06 2.735-1.589a1.542 1.542 0 0 1 .2-.078" transform="translate(-9.791 -2.567)" style="fill:#fff"/>
        <path data-name="Path 63" d="M217.134 60.032c0 .313-.262.368-.448.476l-13.176 7.6c-.416.242-.61.184-.832-.228-.5-.926-1.552-1.907-1.426-2.719.131-.84 1.614-1.147 2.511-1.671 3.583-2.09 7.193-4.134 10.776-6.224.561-.328.882-.387 1.19.292s.751 1.313 1.132 1.967c.1.17.186.347.273.51" transform="translate(-34.782 -9.856)" style="fill:#fff"/>
        <path data-name="Path 64" d="M167.48 30.8c-1.041-.59-2.055-1.138-3.037-1.738-.286-.175.012-.424.11-.593 2.556-4.384 5.129-8.756 7.678-13.144.272-.469.492-.495.921-.218a21.461 21.461 0 0 0 2.141 1.232c.582.286.531.561.238 1.058-2.512 4.257-4.994 8.53-7.492 12.8-.138.236-.231.544-.558.609" transform="translate(-28.401 -2.58)" style="fill:#fff"/>
        <path data-name="Path 65" d="M10.377 81.474c.22.076.374.133.53.184 2.473.8 4.941 1.62 7.426 2.381.591.18.584.41.422.913-.446 1.386-.419 1.39-1.8.939-2.253-.735-4.509-1.462-6.76-2.2-.285-.093-.747-.111-.543-.606.222-.542.166-1.231.73-1.61" transform="translate(-1.659 -14.082)" style="fill:#fff"/>
        <path data-name="Path 66" d="M22.826 74.494c-.2.452-.4.979-.672 1.463-.141.251-.4.093-.618 0q-3.69-1.64-7.387-3.268c-.357-.157-.549-.3-.3-.713a7.2 7.2 0 0 0 .462-1.085c.137-.361.317-.385.67-.226 2.484 1.118 4.983 2.205 7.473 3.311.188.083.486.115.376.519" transform="translate(-2.374 -12.197)" style="fill:#fff"/>
        <path data-name="Path 67" d="M86.041 18.048c.068.313-.141.392-.379.463a10.082 10.082 0 0 0-1.031.34c-.455.191-.632.022-.773-.419q-1.217-3.8-2.491-7.588c-.158-.468-.019-.668.411-.78a6.265 6.265 0 0 0 1.036-.318c.324-.15.481-.075.585.242q1.3 3.984 2.611 7.966l.031.093" transform="translate(-14.052 -1.672)" style="fill:#fff"/>
        <path data-name="Path 68" d="M217.036 95.119c-.093-.381.168-.46.493-.528 2.64-.547 5.281-1.092 7.914-1.673.433-.1.615-.019.674.406a4.964 4.964 0 0 0 .171.871c.192.581-.024.8-.6.912a537.777 537.777 0 0 0-7.624 1.616c-.466.1-.764.05-.816-.506-.034-.358-.133-.711-.21-1.1" transform="translate(-37.509 -16.054)" style="fill:#fff"/>
        <path data-name="Path 69" d="M163.6 14.776c-.081.205-.147.391-.228.571-1.049 2.344-2.127 4.675-3.132 7.038-.281.663-.556.609-1.089.346-1.213-.6-1.226-.572-.674-1.807.926-2.075 1.893-4.133 2.759-6.233.333-.81.707-1.01 1.419-.517.309.213.784.177.946.6" transform="translate(-27.33 -2.404)" style="fill:#fff"/>
        <path data-name="Path 70" d="M211.136 76.1c-.513-.386-.565-1.046-.855-1.565-.251-.448.168-.5.4-.6 2.431-1.089 4.874-2.149 7.3-3.25.474-.214.722-.179.859.34a2.125 2.125 0 0 0 .261.637c.392.586.226.854-.415 1.125-2.3.973-4.568 2.015-6.85 3.029-.209.093-.425.175-.7.286" transform="translate(-36.331 -12.196)" style="fill:#fff"/>
        <path data-name="Path 71" d="M51.5 25.47c.273 0 .343.208.452.357 1.6 2.18 3.178 4.37 4.79 6.538.3.4.246.6-.165.826a4.945 4.945 0 0 0-.878.637c-.3.264-.473.214-.7-.1q-2.4-3.328-4.828-6.634c-.207-.283-.279-.48.069-.707.44-.288.853-.618 1.26-.916" transform="translate(-8.641 -4.402)" style="fill:#fff"/>
        <path data-name="Path 72" d="M42.283 32.857c.271-.006.372.185.5.328 1.811 2 3.614 4.009 5.435 6 .289.316.316.526-.049.778a2.547 2.547 0 0 0-.586.527c-.439.578-.765.471-1.212-.041a219.132 219.132 0 0 0-4.962-5.5c-.538-.574-.688-.955.079-1.407a5.371 5.371 0 0 0 .793-.69" transform="translate(-7.079 -5.679)" style="fill:#fff"/>
        <path data-name="Path 73" d="M193.889 48.842a17.366 17.366 0 0 1-1.239-1.4c-.3-.415.208-.56.413-.746 1.856-1.69 3.741-3.347 5.592-5.042.458-.42.84-.666 1.206.023.256.482 1.332.74.328 1.59-1.965 1.663-3.85 3.422-5.769 5.139-.146.131-.3.249-.53.437" transform="translate(-33.281 -7.129)" style="fill:#fff"/>
        <path data-name="Path 74" d="M207.967 51.808c0 .278-.239.376-.412.5-2.159 1.566-4.33 3.112-6.478 4.692-.394.29-.56.224-.844-.137-.982-1.252-1-1.24.253-2.144 1.787-1.292 3.607-2.541 5.348-3.894.739-.576 1.193-.622 1.628.251a6.059 6.059 0 0 0 .5.731" transform="translate(-34.485 -8.712)" style="fill:#fff"/>
        <path data-name="Path 75" d="m16.025 95.165-.036.166c-.26 1.527-.261 1.533-1.762 1.212-2.283-.486-4.556-1.022-6.849-1.452-.806-.151-.781-.556-.553-1.084.193-.448-.2-1.36.989-1.067 2.52.62 5.074 1.106 7.617 1.628.4.082.73.145.593.6" transform="translate(-1.156 -16.054)" style="fill:#fff"/>
        <path data-name="Path 76" d="M71.972 13.869c.347.019.39.277.478.472 1.09 2.431 2.165 4.87 3.271 7.293.2.447.116.658-.33.809a4.982 4.982 0 0 0-.9.411c-.363.21-.562.165-.744-.249q-1.644-3.75-3.34-7.477c-.163-.358-.123-.529.247-.672.459-.176.9-.4 1.314-.587" transform="translate(-12.154 -2.397)" style="fill:#fff"/>
        <path data-name="Path 77" d="M141.448 7.469c-.6 2.814-1.164 5.456-1.714 8.1-.086.414-.276.5-.684.451-1.615-.213-1.607-.2-1.268-1.773.5-2.32 1-4.64 1.464-6.966.106-.528.359-.692.815-.474.477.228 1.325-.122 1.387.662" transform="translate(-23.783 -1.16)" style="fill:#fff"/>
        <path data-name="Path 78" d="M33.93 41.043c.232.189.441.344.634.517 1.919 1.716 3.822 3.453 5.765 5.142.44.383.434.581.055 1-1 1.093-.974 1.116-2.033.167-1.7-1.519-3.365-3.074-5.1-4.544-.639-.541-.7-.907-.068-1.437a7.66 7.66 0 0 0 .751-.844" transform="translate(-5.658 -7.094)" style="fill:#fff"/>
        <path data-name="Path 79" d="M32.648 57.306c-.243-.167-.435-.294-.621-.428-2.055-1.484-4.1-2.99-6.176-4.441-.558-.39-.622-.654-.193-1.2.832-1.052.8-1.076 1.88-.294 1.893 1.371 3.766 2.772 5.693 4.094.62.424.71.735.2 1.267-.286.3-.517.654-.784 1" transform="translate(-4.386 -8.711)" style="fill:#fff"/>
        <path data-name="Path 80" d="M192.648 34.2c-.191.232-.33.415-.483.585-1.722 1.9-3.464 3.791-5.158 5.719-.4.457-.67.538-1.062.056a2.108 2.108 0 0 0-.514-.459c-.533-.325-.5-.6-.082-1.052a215.77 215.77 0 0 0 5.084-5.651c.491-.568.818-.623 1.3-.06a11.177 11.177 0 0 0 .917.862" transform="translate(-31.981 -5.694)" style="fill:#fff"/>
        <path data-name="Path 81" d="M223.418 83.228c.1.342-.193.371-.387.434-2.594.857-5.194 1.7-7.788 2.556-.35.116-.565.069-.665-.316a8.144 8.144 0 0 0-.326-1.036c-.179-.442-.055-.639.4-.783q3.817-1.2 7.613-2.46c.452-.151.674-.084.792.373.107.414.237.822.356 1.232" transform="translate(-37.018 -14.095)" style="fill:#fff"/>
        <path data-name="Path 82" d="M183.656 26.692c-.127.188-.214.328-.311.462-1.57 2.161-3.152 4.313-4.7 6.487-.3.421-.529.486-.907.136a5.132 5.132 0 0 0-.792-.593c-.347-.213-.423-.393-.149-.763q2.418-3.258 4.784-6.554c.261-.362.46-.482.836-.132s.825.64 1.241.957" transform="translate(-30.528 -4.412)" style="fill:#fff"/>
        <path data-name="Path 83" d="M149.615 18.942c-.48-.151-.988-.287-1.479-.474-.3-.112-.189-.383-.12-.6.843-2.6 1.7-5.185 2.528-7.784.122-.383.3-.452.646-.315a8.523 8.523 0 0 0 1.122.369c.389.094.436.261.313.633-.855 2.591-1.682 5.19-2.529 7.784-.065.2-.126.472-.481.385" transform="translate(-25.57 -1.678)" style="fill:#fff"/>
        <path data-name="Path 84" d="M96.594 15.206c.017.163.076.39-.1.439a5.517 5.517 0 0 1-1.723.35c-.465-.029-.337-.633-.416-.993-.534-2.443-1.032-4.9-1.59-7.333-.12-.522.113-.746.491-.681.537.092 1.316-.878 1.567.117.677 2.679 1.193 5.4 1.773 8.1" transform="translate(-16.027 -1.15)" style="fill:#fff"/>
        <path data-name="Path 85" d="M228.037 105.8c.208.641-.158.827-.808.888-2.494.233-4.989.468-7.473.78-1.362.17-.759-.918-.982-1.433-.29-.666.247-.691.743-.741 2.395-.238 4.784-.519 7.178-.754 1.264-.125 1.266-.1 1.342 1.261" transform="translate(-37.798 -18.06)" style="fill:#fff"/>
        <path data-name="Path 86" d="M105.848 5.021c.531-.175.69.1.747.692.251 2.626.549 5.249.847 7.87.042.375-.044.506-.437.575-1.68.294-1.706.27-1.861-1.425-.192-2.1-.421-4.2-.639-6.3-.14-1.352-.144-1.352 1.342-1.41" transform="translate(-18.053 -.859)" style="fill:#fff"/>
        <path data-name="Path 87" d="M5.919 104.487c2.749.288 5.3.565 7.859.815.425.041.595.174.5.607a2.657 2.657 0 0 0-.087.783c.069.766-.328.84-.958.767-2.421-.28-4.841-.585-7.271-.756-.963-.068-1.026-.463-.939-1.237.081-.714.1-1.339.9-.979" transform="translate(-.863 -18.041)" style="fill:#fff"/>
        <path data-name="Path 88" d="M128.806 5.065c.983-.171 1.253.2 1.1 1.244-.344 2.412-.559 4.844-.785 7.272-.055.585-.2.855-.828.665a2.54 2.54 0 0 0-.783-.088c-.466.011-.633-.14-.576-.644.291-2.553.564-5.109.8-7.668.065-.7.292-1.043 1.064-.782" transform="translate(-21.938 -.86)" style="fill:#fff"/>
    </g>
</svg>
