<svg data-name="Group 87" xmlns="http://www.w3.org/2000/svg" width="87.32" height="65.452" viewBox="0 0 87.32 65.452">
    <defs>
        <clipPath id="wymg34ksia">
            <path data-name="Rectangle 12" style="fill:none" d="M0 0h87.32v65.452H0z"/>
        </clipPath>
    </defs>
    <g data-name="Group 61" style="clip-path:url(#wymg34ksia)">
        <path data-name="Path 48" d="M41.942 148.958a13.062 13.062 0 0 0-1.482-.359 5.426 5.426 0 0 1-3.428-2.616 4.09 4.09 0 0 1-.458-1.471.9.9 0 0 1 .838-1.087 9.537 9.537 0 0 1 1.462-.005 1 1 0 0 1 .95.689 3.04 3.04 0 0 0 2.978 2.162 4.6 4.6 0 0 0 2.346-.334 1.686 1.686 0 0 0 1.125-1.516 1.574 1.574 0 0 0-.95-1.481 8.706 8.706 0 0 0-2.128-.739 25.868 25.868 0 0 1-3.314-.967 4.133 4.133 0 0 1-2.769-2.828 4.282 4.282 0 0 1 1.655-4.551 7 7 0 0 1 4.669-1.205 7.061 7.061 0 0 1 3.58 1.03 4.258 4.258 0 0 1 1.907 2.624c.21.878-.182 1.373-1.087 1.376-.133 0-.267-.012-.4 0a1.632 1.632 0 0 1-1.986-1.129 1.659 1.659 0 0 0-1.1-.97 4.672 4.672 0 0 0-2.664-.127 1.856 1.856 0 0 0-.969.592 1.379 1.379 0 0 0 .434 2.252 21.8 21.8 0 0 0 3.65 1.067 9.885 9.885 0 0 1 2.511.845 4.045 4.045 0 0 1 2.288 3.59 4.463 4.463 0 0 1-2.234 4.156 7.1 7.1 0 0 1-2.759.909c-.093.013-.215-.043-.267.093z" transform="translate(-23.021 -83.506)" style="fill:#1775d3"/>
        <path data-name="Path 49" d="M0 115.087c2.306 0 4.612.019 6.917 0 .4 0 .524.1.48.489a4.45 4.45 0 0 0 0 .886c.027.308-.076.4-.39.4-1.863-.015-3.726-.008-5.589-.007-.473 0-.945.007-1.418.011v-1.776" transform="translate(0 -72.459)" style="fill:#fff"/>
        <path data-name="Path 50" d="M116.812 0c-.1.15-.032.315-.033.471-.006 2.145-.011 4.29 0 6.435 0 .345-.046.517-.446.474s-.961.131-1.2-.077c-.278-.241-.083-.805-.086-1.228-.014-2.025-.013-4.05-.016-6.075z" transform="translate(-72.397)" style="fill:#fff"/>
        <path data-name="Path 51" d="M235.607 171.326a.09.09 0 0 0-.079-.027v-1.272l.082-.033z" transform="translate(-148.287 -107.028)" style="fill:#0060a9"/>
        <path data-name="Path 52" d="M66.632 35.746c3.168 0 6.336.005 9.5-.007.372 0 .48.04.36.452a323.539 323.539 0 0 0-1.62 5.8.484.484 0 0 1-.565.431c-4.086-.015-8.172-.01-12.258-.01a1.809 1.809 0 0 0-2.032 1.512q-.446 1.53-.884 3.062c-.25.874.1 1.34 1.017 1.341h6.4c1.044 0 1.392.468 1.1 1.467q-.556 1.913-1.11 3.828A1.762 1.762 0 0 1 64.719 55c-2.176.006-4.353 0-6.529 0a1.71 1.71 0 0 0-1.735 1.3c-.33 1.118-.649 2.239-.966 3.361-.222.789.136 1.278.961 1.285 1.332.013 2.665 0 4 0h7.684c.925 0 1.275.475 1.017 1.377l-1.112 3.874a1.782 1.782 0 0 1-1.89 1.41H47.984c-.969 0-1.331-.5-1.06-1.437q2.788-9.67 5.576-19.348 1.386-4.808 2.77-9.617a1.8 1.8 0 0 1 1.945-1.459h9.416" transform="translate(-29.487 -22.501)" style="fill:#fff"/>
        <path data-name="Path 53" d="M120.738 42.407c-1.643 0-3.285-.007-4.928.006-.334 0-.436-.043-.329-.413a391.89 391.89 0 0 0 1.632-5.844c.089-.327.234-.423.576-.42 2.664.017 5.328.009 7.992.01a9.626 9.626 0 0 1 1.381 19.154 22.643 22.643 0 0 1-3.1.091h-3.685a1.729 1.729 0 0 0-1.854 1.381q-1.415 4.893-2.824 9.787a1.78 1.78 0 0 1-1.908 1.443h-3.73c-.935 0-1.3-.472-1.046-1.367q2.154-7.514 4.317-15.026l.427-1.49a1.759 1.759 0 0 1 1.823-1.375l10.122-.014a2.962 2.962 0 1 0 .021-5.92c-1.628-.008-3.256 0-4.884 0" transform="translate(-68.521 -22.499)" style="fill:#2075d3"/>
        <path data-name="Path 54" d="M.755 141.46v-6.438c0-1.035.344-1.374 1.391-1.374h9.015c.925 0 1.29.366 1.292 1.288 0 .207.014.416 0 .622a1.04 1.04 0 0 1-1.1.984H5.491c-.892 0-1.264.375-1.265 1.265v.933a.994.994 0 0 0 1.1 1.1h5.063a1.377 1.377 0 0 1 1.283 2.119 1.069 1.069 0 0 1-1.06.586c-1.673-.007-3.345 0-5.018 0-1.026 0-1.363.333-1.363 1.344v1.288a1.019 1.019 0 0 0 1.143 1.148h5.906c.989 0 1.362.374 1.36 1.37a4.035 4.035 0 0 1-.024.663 1 1 0 0 1-1.015.88q-4.908.011-9.814 0c-.633 0-1.019-.483-1.021-1.2q-.006-2.908 0-5.816v-.755" transform="translate(-.475 -84.145)" style="fill:#1775d3"/>
        <path data-name="Path 55" d="M169.245 133.647h.577a1.546 1.546 0 0 1 1.588 1.1q2.212 5.9 4.418 11.806c.207.553.423 1.1.617 1.658.221.636-.047 1.018-.709 1.029q-.71.012-1.42 0a1.5 1.5 0 0 1-1.418-1.016c-.161-.443-.3-.895-.456-1.341a1.5 1.5 0 0 0-1.529-1.1h-3.506a1.527 1.527 0 0 0-1.52 1.064c-.155.43-.3.863-.453 1.294a1.533 1.533 0 0 1-1.535 1.1c-.414 0-.829.006-1.243 0-.661-.011-.932-.406-.7-1.036.562-1.506 1.132-3.008 1.7-4.511q1.642-4.344 3.287-8.688c.417-1.1.8-1.358 1.989-1.358h.311m0 3.983-.1-.013c-.558 1.583-1.132 3.161-1.664 4.753-.15.448.163.808.666.824.665.023 1.332.022 2 0a.672.672 0 0 0 .679-.966c-.515-1.538-1.054-3.067-1.583-4.6" transform="translate(-101.916 -84.144)" style="fill:#fff"/>
        <path data-name="Path 56" d="M130.492 141.427v-6.435c0-.989.353-1.35 1.33-1.341 2.115.019 4.23-.033 6.345.044 3.025.111 5.262 2.3 4.689 5.922-.413 2.611-2.174 3.941-5.077 4.016-.857.022-1.716.01-2.574.016s-1.242.392-1.243 1.25v3.151a1.051 1.051 0 0 1-1.2 1.194h-1.065a1.072 1.072 0 0 1-1.2-1.2c-.009-1.227 0-2.455 0-3.683v-2.929m3.47-2.8c0 .429-.008.858 0 1.286a1 1 0 0 0 .977 1.056 14.789 14.789 0 0 0 2.831-.089 2.259 2.259 0 0 0 .046-4.431 12.973 12.973 0 0 0-2.96-.09.95.95 0 0 0-.893.982c-.016.428 0 .857 0 1.286" transform="translate(-82.157 -84.147)" style="fill:#fff"/>
        <path data-name="Path 57" d="M80.275 133.659h5.194c.8 0 1.142.371 1.18 1.16.066 1.38-.261 1.8-1.7 1.723-.575-.031-1.154-.006-1.731 0-.862 0-1.248.383-1.249 1.244v10.074c0 1.063-.315 1.381-1.368 1.381h-.888a1.026 1.026 0 0 1-1.171-1.165v-10.163c0-1.013-.354-1.371-1.352-1.372h-2.219a1.039 1.039 0 0 1-1.122-1.1c-.051-1.254.055-1.859 1.719-1.794 1.566.061 3.137.013 4.7.013" transform="translate(-46.49 -84.141)" style="fill:#1775d3"/>
        <path data-name="Path 58" d="M216.81 147.139v1.272a.983.983 0 0 1-1 .824q-4.484.009-8.967 0a1.035 1.035 0 0 1-1.042-1.175V134.879c0-.859.379-1.232 1.249-1.235.37 0 .74-.006 1.11 0a1.01 1.01 0 0 1 1.093 1.113v10.3c0 .911.35 1.263 1.256 1.264h5.149a1.039 1.039 0 0 1 1.151.819" transform="translate(-129.572 -84.14)" style="fill:#fff"/>
        <path data-name="Path 59" d="M113.2 141.424v-6.571c0-.839.372-1.2 1.223-1.207h1.066a1.047 1.047 0 0 1 1.159 1.153c.009 1.42 0 2.841 0 4.262v8.88c0 .917-.378 1.3-1.287 1.3h-1.066a1.018 1.018 0 0 1-1.1-1.11v-6.7" transform="translate(-71.268 -84.142)" style="fill:#1775d3"/>
        <path data-name="Path 60" d="M21.9 60.831c-.112.188-.226.377-.338.567-.506.862-.507.865-1.381.364-1.726-.989-3.448-1.987-5.18-2.967-.26-.147-.336-.257-.151-.524.251-.362.388-.952.711-1.071s.757.343 1.136.56c1.638.935 3.271 1.881 4.9 2.824.11.063.255.088.3.246" transform="translate(-9.283 -36.002)" style="fill:#fff"/>
        <path data-name="Path 61" d="M218.72 116.764c-1.109 0-2.217-.008-3.325.006-.262 0-.373-.05-.353-.337.031-.454-.146-1.052.081-1.328s.858-.086 1.31-.088c1.818-.01 3.636.006 5.453-.013.356 0 .51.068.47.452a5.592 5.592 0 0 0 0 .974c.02.282-.09.344-.354.341-1.093-.013-2.187-.006-3.281-.006" transform="translate(-135.368 -72.372)" style="fill:#fff"/>
        <path data-name="Path 62" d="M58.054 14.853c.126 0 .146.122.194.2l3.434 5.836c.112.189.127.3-.1.409-.343.172-.673.369-1 .571-.187.116-.291.113-.414-.1-1.14-1.965-2.292-3.923-3.44-5.884-.056-.1-.161-.195.007-.291.409-.236.816-.475 1.225-.712a.691.691 0 0 1 .091-.035" transform="translate(-35.666 -9.351)" style="fill:#fff"/>
        <path data-name="Path 63" d="M208.358 58.372c0 .14-.117.165-.2.213l-5.9 3.4c-.186.108-.273.083-.373-.1-.223-.415-.695-.854-.639-1.217s.723-.514 1.125-.748c1.6-.936 3.221-1.851 4.826-2.787.251-.147.395-.173.533.131s.336.588.507.881c.044.076.083.156.122.229" transform="translate(-126.702 -35.904)" style="fill:#fff"/>
        <path data-name="Path 64" d="M165.736 22.037c-.466-.264-.92-.51-1.36-.778-.128-.078.006-.19.049-.266 1.145-1.963 2.3-3.921 3.438-5.886.122-.21.22-.221.412-.1a9.607 9.607 0 0 0 .959.552c.26.128.238.251.107.474-1.125 1.906-2.236 3.82-3.355 5.73-.062.106-.1.244-.25.273" transform="translate(-103.457 -9.4)" style="fill:#fff"/>
        <path data-name="Path 65" d="M9.946 81.474c.1.034.167.06.237.082 1.107.358 2.212.725 3.325 1.066.265.081.262.184.189.409-.2.621-.187.623-.808.42-1.009-.329-2.019-.655-3.027-.985-.127-.042-.334-.05-.243-.271.1-.243.074-.551.327-.721" transform="translate(-6.042 -51.296)" style="fill:#fff"/>
        <path data-name="Path 66" d="M17.806 72.328c-.091.2-.179.438-.3.655-.063.112-.181.042-.277 0q-1.652-.734-3.308-1.463c-.16-.07-.246-.132-.136-.319a3.225 3.225 0 0 0 .207-.486c.061-.162.142-.172.3-.1 1.112.5 2.231.987 3.346 1.483.084.037.217.051.169.232" transform="translate(-8.648 -44.431)" style="fill:#fff"/>
        <path data-name="Path 67" d="M83.425 13.422c.03.14-.063.176-.17.207a4.514 4.514 0 0 0-.462.152c-.2.086-.283.01-.346-.188q-.545-1.7-1.116-3.4c-.071-.21-.009-.3.184-.349a2.806 2.806 0 0 0 .465-.144c.145-.067.216-.034.262.109q.583 1.784 1.169 3.567l.014.042" transform="translate(-51.189 -6.089)" style="fill:#fff"/>
        <path data-name="Path 68" d="M217.026 93.883c-.041-.171.075-.206.221-.236 1.182-.245 2.365-.489 3.544-.749.194-.043.275-.009.3.182a2.223 2.223 0 0 0 .077.39c.086.26-.011.356-.27.409-1.14.23-2.277.477-3.414.724-.209.045-.342.023-.365-.227-.015-.16-.06-.318-.094-.492" transform="translate(-136.634 -58.479)" style="fill:#fff"/>
        <path data-name="Path 69" d="M160.576 14.3c-.036.092-.066.175-.1.256-.47 1.05-.953 2.093-1.4 3.152-.126.3-.249.273-.488.155-.543-.268-.549-.256-.3-.809.415-.929.847-1.851 1.235-2.791.149-.363.317-.452.636-.231.138.1.351.079.424.27" transform="translate(-99.555 -8.755)" style="fill:#fff"/>
        <path data-name="Path 70" d="M210.621 73.043c-.23-.173-.253-.469-.383-.7-.113-.2.075-.224.178-.27 1.089-.487 2.183-.962 3.268-1.455.212-.1.323-.08.385.152a.951.951 0 0 0 .117.285c.176.262.1.382-.186.5-1.029.436-2.046.9-3.067 1.356-.094.041-.19.078-.312.128" transform="translate(-132.344 -44.426)" style="fill:#fff"/>
        <path data-name="Path 71" d="M50.667 25.47c.122 0 .154.093.2.16.715.976 1.423 1.957 2.145 2.928.133.179.11.268-.074.37a2.214 2.214 0 0 0-.393.285c-.133.118-.212.1-.313-.045q-1.074-1.49-2.162-2.971c-.093-.127-.125-.215.031-.317.2-.129.382-.277.564-.41" transform="translate(-31.476 -16.036)" style="fill:#fff"/>
        <path data-name="Path 72" d="M41.552 32.857c.121 0 .167.083.224.147.811.9 1.618 1.8 2.434 2.687.129.141.141.236-.022.349a1.14 1.14 0 0 0-.262.236c-.2.259-.343.211-.543-.018a97.824 97.824 0 0 0-2.222-2.461c-.241-.257-.308-.428.036-.63a2.4 2.4 0 0 0 .355-.309" transform="translate(-25.788 -20.687)" style="fill:#fff"/>
        <path data-name="Path 73" d="M193.154 44.646a7.775 7.775 0 0 1-.555-.627c-.134-.186.093-.251.185-.334.831-.757 1.675-1.5 2.5-2.258.205-.188.376-.3.54.01.115.216.6.332.147.712-.88.745-1.724 1.532-2.583 2.3-.065.059-.135.111-.237.2" transform="translate(-121.234 -25.967)" style="fill:#fff"/>
        <path data-name="Path 74" d="M203.3 51.034c0 .124-.107.169-.184.224-.967.7-1.939 1.393-2.9 2.1-.176.13-.251.1-.378-.061-.44-.561-.447-.555.113-.96.8-.579 1.615-1.138 2.4-1.744.331-.258.534-.279.729.112a2.715 2.715 0 0 0 .226.327" transform="translate(-125.618 -31.735)" style="fill:#fff"/>
        <path data-name="Path 75" d="m10.869 93.9-.016.074c-.116.684-.117.686-.789.543-1.022-.218-2.04-.458-3.067-.65-.361-.067-.35-.249-.248-.486.086-.2-.09-.609.443-.478 1.128.278 2.272.5 3.411.729.179.037.327.065.266.268" transform="translate(-4.21 -58.479)" style="fill:#fff"/>
        <path data-name="Path 76" d="M71.06 13.869c.156.009.175.124.214.211.488 1.089.969 2.181 1.465 3.266.091.2.052.295-.148.362a2.231 2.231 0 0 0-.4.184c-.163.094-.251.074-.333-.111q-.736-1.679-1.5-3.348c-.073-.16-.055-.237.111-.3.206-.079.4-.179.588-.263" transform="translate(-44.273 -8.732)" style="fill:#fff"/>
        <path data-name="Path 77" d="M139.323 7.052c-.267 1.26-.521 2.443-.767 3.628-.039.185-.124.226-.306.2-.723-.1-.72-.088-.568-.794.223-1.039.446-2.078.656-3.119.047-.236.161-.31.365-.212s.593-.055.621.3" transform="translate(-86.633 -4.227)" style="fill:#fff"/>
        <path data-name="Path 78" d="M33.27 41.043c.1.084.2.154.284.231.859.769 1.712 1.546 2.582 2.3.2.171.194.26.024.447-.446.489-.436.5-.91.075-.76-.68-1.507-1.376-2.286-2.035-.286-.242-.314-.406-.03-.643a3.43 3.43 0 0 0 .336-.378" transform="translate(-20.61 -25.841)" style="fill:#fff"/>
        <path data-name="Path 79" d="M28.634 53.493c-.109-.075-.195-.131-.278-.191-.92-.664-1.834-1.339-2.765-1.989-.25-.174-.279-.293-.086-.536.373-.471.358-.482.842-.131.848.614 1.686 1.241 2.549 1.833.277.19.318.329.09.567-.128.134-.231.293-.351.447" transform="translate(-15.978 -31.733)" style="fill:#fff"/>
        <path data-name="Path 80" d="M188.442 33.508c-.086.1-.148.186-.216.262-.771.853-1.551 1.7-2.31 2.561-.18.2-.3.241-.476.025a.944.944 0 0 0-.23-.206c-.239-.146-.224-.269-.037-.471a93.965 93.965 0 0 0 2.276-2.531c.22-.254.366-.279.582-.027a5 5 0 0 0 .41.386" transform="translate(-116.496 -20.742)" style="fill:#fff"/>
        <path data-name="Path 81" d="M218.314 82.3c.046.153-.086.166-.173.194-1.162.384-2.326.761-3.487 1.145-.157.052-.253.031-.3-.141a3.643 3.643 0 0 0-.146-.464c-.08-.2-.024-.286.181-.351q1.709-.537 3.409-1.1c.2-.067.3-.037.354.167.048.186.106.368.16.552" transform="translate(-134.844 -51.344)" style="fill:#fff"/>
        <path data-name="Path 82" d="M179.776 26.048c-.057.084-.1.147-.139.207-.7.967-1.412 1.931-2.106 2.905-.134.189-.237.217-.406.061a2.3 2.3 0 0 0-.354-.266c-.156-.1-.19-.176-.067-.342q1.083-1.459 2.142-2.935c.117-.162.206-.216.374-.059s.369.287.556.429" transform="translate(-111.206 -16.071)" style="fill:#fff"/>
        <path data-name="Path 83" d="M148.689 13.843c-.215-.068-.443-.129-.662-.212-.133-.05-.085-.171-.054-.267.377-1.162.76-2.322 1.132-3.485.055-.171.133-.2.289-.141a3.816 3.816 0 0 0 .5.165c.174.042.2.117.14.283-.383 1.16-.753 2.324-1.133 3.485-.029.089-.056.211-.215.172" transform="translate(-93.142 -6.112)" style="fill:#fff"/>
        <path data-name="Path 84" d="M94.461 10.482c.007.073.034.175-.046.2a2.471 2.471 0 0 1-.772.157c-.208-.013-.151-.283-.186-.445-.239-1.094-.462-2.192-.712-3.284-.054-.234.051-.334.22-.3.24.041.589-.393.7.052.3 1.2.534 2.417.794 3.628" transform="translate(-58.383 -4.188)" style="fill:#fff"/>
        <path data-name="Path 85" d="M222.877 105.078c.093.287-.071.37-.362.4-1.117.1-2.234.21-3.347.349-.61.076-.34-.411-.44-.642-.13-.3.111-.31.333-.332 1.072-.107 2.142-.232 3.214-.338.566-.056.567-.044.6.564" transform="translate(-137.689 -65.788)" style="fill:#fff"/>
        <path data-name="Path 86" d="M105.075 4.992c.238-.079.309.044.334.31.113 1.176.246 2.351.379 3.524.019.168-.02.227-.2.257-.752.131-.764.121-.833-.638-.086-.942-.189-1.882-.286-2.822-.063-.606-.064-.605.6-.632" transform="translate(-65.76 -3.128)" style="fill:#fff"/>
        <path data-name="Path 87" d="M5.408 104.429c1.231.129 2.374.253 3.519.365.19.019.266.078.223.272a1.19 1.19 0 0 0-.039.35c.031.343-.147.376-.429.343-1.084-.126-2.168-.262-3.256-.339-.431-.03-.459-.207-.42-.554.036-.32.047-.6.4-.438" transform="translate(-3.144 -65.719)" style="fill:#fff"/>
        <path data-name="Path 88" d="M127.769 5.016c.44-.077.561.09.494.557-.154 1.08-.25 2.169-.352 3.256-.024.262-.089.383-.371.3a1.137 1.137 0 0 0-.351-.039c-.209 0-.283-.063-.258-.288.13-1.143.253-2.288.36-3.434.029-.314.131-.467.476-.35" transform="translate(-79.914 -3.134)" style="fill:#fff"/>
    </g>
</svg>
